<svg version="1.2" xmlns="http://www.w3.org/2000/svg" viewBox="0 0 173 172" width="173" height="172">
    <title>logo-circle-svg</title>
    <style>
        .s0 { fill: #ffffff }
        .s1 { fill: #3085c7 }
        .s2 { fill: #00bbbc }
        .s3 { fill: none }
    </style>
    <g id="Layer">
        <g id="Layer">
            <path id="Layer" class="s0" d="m0.7 81.9c0.2-0.6 0.1-1.2 0.2-1.9 0.5-7 1.7-13.8 3.9-20.4 3.9-12.3 10.3-23.1 19.1-32.5 6.9-7.4 14.8-13.4 23.8-17.9 7.3-3.7 14.9-6.3 22.9-7.8 4-0.8 8-1.2 12-1.4 0.1 0 0.2 0 0.3-0.1q3.7 0 7.5 0c0.7 0.2 1.4 0.1 2.1 0.2 6.9 0.5 13.6 1.7 20.1 3.8 12.5 4 23.5 10.4 33 19.4 10.6 10 18.2 21.9 22.7 35.7 1.7 5.2 2.9 10.5 3.6 15.8 0.7 5 0.8 10 0.6 15.1-0.9 18.7-7.2 35.4-19 50-11.9 14.7-27.1 24.5-45.5 29.3-5.5 1.4-11.1 2.3-16.8 2.6-14.8 0.7-28.8-2-42.1-8.5-8-3.9-15.3-8.9-21.7-15-10.6-10.1-18.2-22.1-22.7-36-1.7-5.3-2.9-10.6-3.5-16.1-0.2-2.1-0.4-4.1-0.5-6.2 0-0.1 0-0.2-0.1-0.2 0.1-2.7 0.1-5.3 0.1-7.9z"/>
            <g id="Layer">
                <g id="Layer">
                    <path id="Layer" fill-rule="evenodd" class="s1" d="m0.7 81.9c0.2-0.6 0.1-1.2 0.2-1.9 0.5-7 1.7-13.8 3.9-20.4 3.9-12.3 10.3-23.1 19.1-32.5 6.9-7.4 14.8-13.4 23.8-17.9 7.3-3.7 14.9-6.3 22.9-7.8 4-0.8 8-1.2 12-1.4 0.1 0 0.2 0 0.3-0.1q3.7 0 7.5 0c0.7 0.2 1.4 0.1 2.1 0.2 6.9 0.5 13.6 1.7 20.1 3.8 12.5 4 23.5 10.4 33 19.4 10.6 10 18.2 21.9 22.7 35.7 1.7 5.2 2.9 10.5 3.6 15.8 0.7 5 0.8 10 0.6 15.1-0.9 18.7-7.2 35.4-19 50-11.9 14.7-27.1 24.5-45.5 29.3-5.5 1.4-11.1 2.3-16.8 2.6-14.8 0.7-28.8-2-42.1-8.5-8-3.9-15.3-8.9-21.7-15-10.6-10.1-18.2-22.1-22.7-36-1.7-5.3-2.9-10.6-3.5-16.1-0.2-2.1-0.4-4.1-0.5-6.2 0-0.1 0-0.2-0.1-0.2 0.1-2.7 0.1-5.3 0.1-7.9zm171.1 4c0-46.7-37.6-84.8-84.4-85.2-47.4-0.4-85.5 37.7-85.8 84.5-0.3 47.4 37.6 85 83.6 85.8 48.1 0.8 86.7-38 86.6-85.1z"/>
                    <path id="Layer" fill-rule="evenodd" class="s1" d="m27 85.9c0-33 26.8-59.8 59.9-59.6 32.9 0.1 60 27.1 59.4 60.8-0.6 32.4-27.3 59.1-60.8 58.5-32.3-0.7-58.5-27.1-58.5-59.7zm118.4 0c0.1-32-25.8-58.6-58.4-58.8-32.7-0.2-58.9 26.1-59.1 58.5-0.1 32.8 26.2 58.5 57.6 59.1 33.3 0.5 60-26.3 59.9-58.8z"/>
                    <path id="Layer" fill-rule="evenodd" class="s1" d="m108.8 17.2q0 0 0.1 0c1.8 0.6 3.5 1.5 5.3 2.1 0.2 0.1 0.3 0.2 0.5-0.1 0.2-0.3 0.3 0 0.5 0.1 1.3 0.7 2.7 1.5 4 2.2 0.9 0.5 1.8 0.7 2.8 0.8 0.1-0.2-0.1-0.3-0.1-0.4-0.4-0.6-0.8-1.1-1.3-1.7-0.6-0.7-1.3-1.1-2.2-1.1-0.2 0-0.5 0-0.5-0.2 0-0.2 0.2-0.3 0.4-0.4 0.9-0.4 1.8-0.7 2.8-0.8 0.9-0.1 1.5 0.5 2.1 1.1 0.4 0.5 0.7 1 1.1 1.6 1.1 1.9 2.4 3.6 4 5 0 0 0.1 0.1 0.1 0.2-0.8 0.3-1.5 0.6-2.2 1-0.3 0.1-0.4 0-0.6-0.1-0.8-0.5-1.7-1.1-2.5-1.7-0.8-0.6-1.7-0.9-2.7-0.8-1.5 0.1-2.8-0.3-4-1.1-0.3-0.2-0.7-0.4-1-0.6-0.2-0.1-0.4-0.4-0.7-0.1 0 0-0.2-0.1-0.4-0.1-1.5-0.6-3.1-1.2-4.6-1.8-2.6-1-5.3-1.5-7.9-2.3-1.6-0.5-3.2-0.5-4.8-0.8-2.3-0.4-4.7-0.6-7-0.7-2.1-0.1-4.1-0.1-6.2 0-0.3 0-0.4 0.1-0.5 0.3-0.2 0.9-0.5 1.8-1 2.6q-0.6 1-1.5 1.8c-0.8 0.7-1.6 0.9-2.6 0.6-1.3-0.3-2.5-0.5-3.7-1.1-0.3-0.1-0.8-0.2-0.7-0.6 0.1-0.4 0.5-0.1 0.8-0.1 0.3 0 0.6 0 0.9 0.1 1.1 0.3 2 0 2.9-0.5 1.3-0.8 2.3-1.8 3.3-3.1-0.8 0-1.4 0-2.1 0q-1.1 0-1.8-0.6c-0.4-0.3-0.6-0.7-0.5-1.1 0.1-1.7 0.5-3.3 1.4-4.7 0.9-1.6 2.1-1.7 3.2 0 0.6 0.9 1 2 1.3 3 0.1 0.4 0.2 0.5 0.6 0.5 2.3 0.2 4.6 0 6.9 0.2 2.8 0.2 5.6 0.6 8.4 0.9 1.3 0.2 2.5 0.5 3.7 0.8 0.3 0.1 0.4 0 0.4-0.2 0.1-0.5 0.4-0.8 0.8-1.1 1.5-0.9 2.9-1.8 4.7-2 1.2-0.2 1.8 0.3 1.9 1.5 0.1 1.1-0.2 2.1-1.1 2.8-0.4 0.3-0.5 0.5-0.7 0.7zm0.1 0q-0.1 0-0.1 0c0.1 0.1 0.1 0 0.1 0zm-2.2-2.9c-0.4 0-0.9 0.1-1.4 0.3-0.4 0.2-0.5 0.5-0.3 0.8 0.5 0.9 1.8 1.4 2.8 1.1 0.1 0 0.3-0.1 0.4-0.2 0.3-0.7-0.4-2-1.5-2zm-26.7-0.4c0.3-0.1 0.6 0 0.9-0.1 0.2-0.1 0.3-0.2 0.2-0.4-0.3-0.5-0.5-1.1-1.1-1.4-0.2-0.1-0.4-0.2-0.6-0.1-0.4 0.2-0.9 0.8-0.9 1.1 0.1 0.5 0.5 0.7 0.9 0.9q0.3-0.1 0.6 0z"/>
                    <path id="Layer" fill-rule="evenodd" class="s1" d="m140.8 42.4c-1-1.6-2.5-2.9-3.8-4.3-0.3-0.4-0.6-0.8-1-1.1-0.3-0.3-0.2-0.8 0-1.3q0.4-0.7 0.9-1.5c-0.5-0.1-0.9 0.1-1.3 0.3-1 0.4-1.1 0.3-1.7-0.5-0.6-0.8-1.1-1.5-1.7-2.3-0.2-0.3-0.2-0.5 0.1-0.6 0.9-0.5 1.7-1 2.6-1.4 0.7-0.3 1.4-0.1 2.1 0.1 0.7 0.1 1.3 0.2 2 0.4 0.3 0.1 0.4 0 0.5-0.2 0.1-0.4 0.3-0.5 0.6-0.6 0.7-0.2 1.3-0.4 2.1-0.6-0.6 0.8-1.1 1.6-1.6 2.3-0.8 1.2-1.6 2.4-2.4 3.7-0.2 0.4-0.2 0.7 0.1 1 0.7 0.6 1.1 1.5 1.8 2.1 1.5 1.3 2.5 3 3.7 4.5 0.2 0.2 0.3 0.3 0.5 0.1 0 0 0.1 0 0.1-0.1 1.2-1.2 2.7-1.2 4.3-0.9-0.2 0.3-0.5 0.5-0.8 0.7-0.4 0.3-0.8 0.5-1.2 0.8q-0.9 0.5-0.9 1.5c0 0.3 0.1 0.5 0.2 0.8 0.7 1.2 1.4 2.4 2.2 3.6 1.3 2.2 2.4 4.4 3.6 6.7 0.8 1.5 1.2 3 1.9 4.5 0.2 0.4 0.3 0.5 0.7 0.4 0.3-0.1 0.7-0.1 0.9-0.3 0.7-0.4 1.4-0.3 2.1 0.1 0.3 0.2 0.7 0.3 1 0.5q-0.3 0.3-0.6 0.3c-0.5 0.2-1.1 0.3-1.6 0.4-1.1 0.2-1.5 0.9-1.2 2 0.4 1.5 0.7 3.1 1.3 4.6 0.4 1.1 0.6 2.1 0.8 3.2 0 0.2 0.1 0.2 0.3 0.3 1.2 0.1 2.3 0.6 3.4 1.2 0.9 0.5 1.8 0.4 2.7 0.6 0.9 0.2 0.9 0.2 0.5 1-0.7 1.6-1.5 3.1-2.7 4.5-0.2 0.3-0.4 0.5-0.7 0.7-1.2 1.2-2.5 1.3-4.1 0.6-0.4-0.2-0.7-0.5-0.8-1-0.4-2.9-0.8-5.8-1.4-8.7-0.1-0.8-0.5-1.6-0.7-2.4-0.5-1.6-1-3.3-1.5-4.9-0.1-0.3 0-0.6 0.1-0.9 0.1-0.4 0.4-0.7 0.7-1.1-0.4-0.1-0.8-0.2-1.2-0.2-0.3 0-0.4-0.2-0.6-0.4-1.6-4.1-3.7-8-6-11.8-0.6-1-1.3-2-2-3-0.3-0.4-0.2-0.9-0.1-1.3 0.2-0.4 0.4-0.7 0.4-1 0.1 0.1 0.1 0 0 0-1.2 0.4-2 0-2.6-1.1zm-5.3-11.4q-0.2 0 0 0c0.3 0.9 1 1.7 1.7 2.3 0.2 0.2 0.3 0.1 0.4 0 0.4-0.5 0.8-1.1 1.1-1.7 0.1-0.1 0.3-0.3 0.1-0.4-0.1-0.1-0.4 0-0.5 0-0.6 0.3-1.2 0.3-1.9 0.1q-0.4-0.1-0.9-0.3zm24.8 43.3c-0.1-0.4-0.4-0.7-0.8-1-0.3-0.3-0.6-0.7-1-0.5-0.4 0.1-0.5 0.6-0.6 1-0.2 0.7 0.6 1.6 1.3 1.6 0.4 0 1.1-0.6 1.1-1.1zm-2.3 3.8c0 0.2 0.1 0.6 0.1 0.9 0 0.2 0.1 0.2 0.3 0.1 0.6-0.4 1.2-0.9 1.5-1.6 0.2-0.4 0.1-0.7-0.3-0.8-0.9-0.4-1.5 0.1-1.6 1.4z"/>
                    <path id="Layer" class="s1" d="m27.3 38.8c0.8 0.6 1.7 1.1 2.3 1.9 0.4 0.4 0.5 0.4 0.9 0 1.5-1.5 2.8-3.2 4.3-4.8 1.3-1.5 2.8-2.7 4.2-4 0.3-0.3 0.2-0.4-0.1-0.6-0.8-0.5-1.6-0.8-2.6-0.9-0.2 0-0.4-0.1-0.4-0.4-0.1-0.7-0.3-1.4-0.4-2.1-0.1-0.2 0-0.3 0.2-0.3 1.9 0.3 3.6 1 4.6 2.7 0.4 0.7 0.8 1.5 1.2 2.2 0.1 0.2 0.1 0.4-0.1 0.5-0.8 0.7-1.5 1.3-2.2 2-2.2 2-4.2 4.3-6.1 6.6-0.4 0.5-0.8 1.1-1.7 0.9 0.7 0.7 0.1 1-0.2 1.5-0.4 0.6-0.8 1.1-1.2 1.6-0.1 0.2-0.2 0.3-0.4 0.2-0.4-0.1-0.5 0.1-0.4 0.4 0.1 0.3 0 0.5-0.2 0.7-0.5 0.7-1 1.4-1.4 2.2-0.3 0.6-0.7 0.9-1.5 0.9 0.5 0.9 0.1 1.6-0.4 2.4-2.2 4.1-4.1 8.4-5.4 12.9-0.2 0.8-0.5 1.6-0.6 2.4-0.1 0.4-0.2 0.6-0.7 0.5-1.9-0.3-3.9-0.7-5.8-1-1.6-0.3-3.2-0.5-4.8-0.8-0.4-0.1-0.6-0.2-0.8-0.5-0.4-0.6-0.8-1.2-1.2-1.9 1.6 0.3 3.1 0.5 4.7 0.8 1.9 0.3 3.8 0.6 5.8 0.9 0.3 0 0.8-0.5 1-1 0.6-1.8 1.2-3.5 1.9-5.3 0.7-1.9 1.6-3.7 2.5-5.6 0.7-1.5 1.5-2.8 2.3-4.2 0.2-0.3 0.1-0.5-0.1-0.7-0.1 0-0.1-0.1-0.1-0.1-1-0.5-1.2-1.5-1.5-2.4-0.1-0.3-0.2-0.7-0.3-1.1 0.3 0 0.5 0.2 0.7 0.4 0.5 0.5 0.9 1 1.4 1.5 0.5 0.5 0.9 0.5 1.3-0.1 0.2-0.3 0.4-0.5 0.6-0.8 0.1-0.2 0.2-0.3 0.4-0.5 0.2-0.3 0.5-0.6 0.6-0.9 0-0.4-0.5-0.4-0.7-0.6-0.2-0.2-0.3-0.4-0.4-0.6-0.2-0.8-0.3-1.6-0.4-2.5 0.4 0.4 0.7 0.8 1 1.2 0.2 0.3 0.5 0.6 0.7 0.9 0.5 0.6 0.6 0.6 1.1 0 0.2-0.3 0.5-0.7 0.7-1 0.2-0.2 0.1-0.4-0.1-0.5-0.1 0-0.1-0.1-0.2-0.1-0.4-0.2-0.8-0.1-1.1-0.6-0.6-0.5-0.9-1.7-0.9-2.3z"/>
                    <path id="Layer" fill-rule="evenodd" class="s1" d="m43.8 26.7c0.2-0.1 0.3 0 0.5 0.1 0.7 0.3 1.1 0.2 1.5-0.5 0.5-0.8 0.7-1.7 0.9-2.6 0.1-0.2-0.1-0.3-0.2-0.3-1-0.4-2.1-0.6-3.2-0.7-0.4 0-0.3 0.2-0.3 0.4 0.1 0.3 0 0.4-0.4 0.5-0.9 0-1.7 0-2.6 0.2-0.7 0.1-1.2-0.3-1.5-0.8-0.8-1.2-0.7-1.4 0.5-2.2 0.3-0.2 0.7-0.3 0.3-0.8-0.1-0.2 0.2-0.2 0.3-0.2 1.2 0.1 2.5 0.2 3.6 0.5 1.2 0.3 2.3 0.6 3.5 1.3-0.4-1.6-0.8-3-2.3-3.7-0.2-0.1-0.2-0.2-0.2-0.3 0-1 0-2.1 0-3.2 0.7 0.9 1.6 0.7 2.4 0.7 1.3 0 1.2-0.2 1.2 1.1 0 0.3 0 0.7 0 1 0 0.4 0 0.7-0.5 0.8-0.2 0-0.1 0.2-0.1 0.3 0.2 0.4 0.3 0.9 0.5 1.3 0.3 0.7 0.3 1.4 0.3 2.2 0 0.4 0.1 0.6 0.5 0.8 1.5 0.7 2.2 2 2.8 3.4 0.1 0.2 0 0.2-0.1 0.3-1.8 1.2-3.5 2.3-5.3 3.5-0.3 0.2-0.5 0-0.7-0.1-0.6-1.1-1.1-2-1.4-3zm3.6-1.1c0.5-0.3 1.1-0.6 1.6-1-0.4-0.3-0.8-0.5-1.3-0.7-0.1 0.5-0.2 1-0.3 1.7-0.1-0.1-0.1 0-0.1 0 0.1 0 0.1 0 0.1 0z"/>
                    <path id="Layer" fill-rule="evenodd" class="s1" d="m74.1 17.4c0.4 1.6-0.4 2.7-1.6 3.7-1.6 1.3-3.2 2.5-5.3 2.8-2.5 0.4-3.9-0.6-4.3-3.1-0.2-1.5-0.2-3 0.3-4.5 0.1-0.2 0.1-0.7 0.5-0.6 0.3 0.1 0.1 0.5 0.1 0.7 0 0.6-0.1 1.2-0.1 1.8 0 2 1.2 3.2 3.2 2.9 2.3-0.4 4.4-1.3 6-3.1 0.2-0.3 0.3-0.5 0.1-0.8-0.3-0.5-0.5-0.9-0.8-1.3-0.1-0.2-0.2-0.2-0.4 0-0.7 1.2-1.9 1.6-3.2 1.3-0.9-0.2-1.4-0.8-1.4-1.7 0-1.3 0.2-2.6 0.8-3.8 0.7-1.4 1.8-1.6 3-0.6 1.4 1.3 2.3 2.9 3 4.7 0.2 0.5 0.1 1 0.1 1.6zm-4.5-2.8c0.3-0.1 0.6-0.1 1-0.3 0.3-0.1 0.4-0.3 0.1-0.5q-0.4-0.3-0.9-0.6c-0.7-0.4-0.8-0.4-1.1 0.4 0 0.1-0.1 0.2-0.1 0.3 0 0.1 0 0.2 0.1 0.3 0.2 0.2 0.5 0.3 0.9 0.4z"/>
                    <path id="Layer" class="s1" d="m118.6 148.7c0.3-2 2-2.9 3.9-2.1 0.1-1 0.6-1.8 1.6-2.3 0.9-0.5 1.9-0.4 2.7 0.3 0.4 0.3 0.7 0.7 0.9 1.1 0.7 1.3 1.4 2.5 2.2 3.8 0.1 0.2 0.1 0.3-0.1 0.5-0.5 0.2-0.9 0.5-1.4 0.8-0.3 0.2-0.4 0.2-0.6-0.2-0.6-1.1-1.2-2.1-1.8-3.1-0.2-0.3-0.4-0.6-0.6-0.8-0.3-0.3-0.7-0.5-1.1-0.3-0.4 0.2-0.6 0.6-0.6 1q0 0.5 0.3 0.9c0.6 1.1 1.3 2.2 1.9 3.3 0.2 0.3 0.1 0.5-0.2 0.7-0.4 0.2-0.9 0.5-1.3 0.7-0.3 0.2-0.4 0.1-0.5-0.1q-0.9-1.6-1.8-3.3c-0.1-0.2-0.2-0.4-0.3-0.5-0.4-0.6-1-0.7-1.4-0.4-0.5 0.3-0.7 0.9-0.4 1.5 0.3 0.6 0.6 1.2 1 1.8 0.4 0.7 0.7 1.3 1.1 2 0.1 0.2 0.2 0.4-0.1 0.5-0.5 0.2-0.9 0.5-1.4 0.8-0.3 0.2-0.4 0.1-0.5-0.1-1.1-2-2.2-4-3.5-6-0.1-0.2-0.1-0.3 0.1-0.4 0.4-0.2 0.7-0.4 1.1-0.6 0.3-0.3 0.5-0.2 0.7 0.2-0.1 0 0 0.1 0.1 0.3z"/>
                    <path id="Layer" class="s1" d="m26.5 124.3c2 0.2 3.1 2 2.4 3.7 0.6 0.1 1.1 0.2 1.6 0.5 1.4 1 1.7 2.7 0.5 3.9-0.5 0.6-1.1 0.9-1.8 1.4-0.9 0.6-1.8 1.2-2.6 1.8-0.2 0.2-0.3 0.2-0.5-0.1-0.3-0.4-0.5-0.8-0.8-1.2-0.3-0.3-0.3-0.5 0.1-0.8 1-0.6 1.9-1.3 2.9-1.9 0.3-0.2 0.5-0.4 0.7-0.6 0.4-0.4 0.4-0.9 0.1-1.3-0.3-0.4-0.8-0.6-1.3-0.4-0.2 0.1-0.5 0.2-0.7 0.4-1.1 0.7-2.1 1.4-3.1 2.1-0.2 0.2-0.4 0.1-0.5-0.1-0.3-0.4-0.5-0.8-0.8-1.2-0.2-0.3-0.2-0.4 0.1-0.6 1.1-0.7 2.1-1.4 3.1-2.1 0.2-0.1 0.4-0.3 0.6-0.5 0.3-0.4 0.4-0.7 0.2-1.2-0.2-0.4-0.7-0.6-1.2-0.5-0.3 0.1-0.6 0.3-0.9 0.4-1 0.7-2 1.3-3 2.1-0.4 0.3-0.5 0.2-0.7-0.2-0.2-0.4-0.5-0.8-0.8-1.2-0.1-0.2-0.2-0.3 0.1-0.5 1.9-1.3 3.8-2.6 5.7-4 0.2-0.1 0.3-0.1 0.4 0.1 0.2 0.3 0.4 0.7 0.7 1 0.3 0.4 0.2 0.6-0.1 0.8-0.2 0-0.3 0-0.4 0.2z"/>
                    <path id="Layer" class="s1" d="m129.9 141.7c0.1-2.2 1.4-3.1 3.5-2.7 0-0.9 0.2-1.6 0.8-2.3 0.9-0.9 2-1 3.1-0.4 0.6 0.4 1.1 1 1.6 1.6 0.7 0.9 1.4 1.7 2.2 2.6 0.2 0.2 0.3 0.4 0 0.6-0.4 0.3-0.8 0.6-1.2 1-0.2 0.2-0.4 0.2-0.5-0.1-0.7-0.9-1.5-1.8-2.2-2.7-0.2-0.3-0.5-0.6-0.8-0.8-0.5-0.3-0.9-0.3-1.3 0-0.4 0.3-0.5 0.9-0.3 1.3 0.1 0.2 0.3 0.4 0.4 0.6 0.8 1 1.7 2 2.5 3 0.2 0.2 0.2 0.3 0 0.5-0.4 0.3-0.9 0.7-1.3 1.1-0.2 0.2-0.3 0.1-0.5-0.1-0.8-1-1.6-2-2.4-2.9-0.2-0.2-0.4-0.5-0.7-0.6-0.3-0.2-0.7-0.3-1.1 0-0.4 0.3-0.6 0.6-0.5 1.1 0 0.3 0.2 0.6 0.4 0.9 0.8 1 1.6 1.9 2.4 2.9 0.3 0.3 0.3 0.5-0.1 0.8-0.3 0.2-0.6 0.5-0.8 0.7-0.5 0.4-0.5 0.4-1-0.1-1.4-1.7-2.7-3.4-4.2-5-0.2-0.2-0.2-0.3 0-0.5 0.3-0.2 0.6-0.5 0.9-0.7 0.3-0.3 0.6-0.4 0.8 0 0 0 0.1 0 0.3 0.2z"/>
                    <path id="Layer" class="s1" d="m15 113.8c-0.3 0.1-0.3-0.1-0.3-0.3-0.1-0.6-0.2-1.1-0.4-1.7-0.1-0.3 0-0.3 0.3-0.4 1.2-0.2 2.3-0.5 3.5-0.8 0.3-0.1 0.4-0.2 0.3-0.5-0.2-1-0.5-2-0.7-3-0.1-0.3-0.1-0.4-0.4-0.3-1.1 0.3-2.3 0.5-3.4 0.8-0.4 0.1-0.6 0-0.6-0.4-0.1-0.5-0.2-1-0.3-1.4-0.1-0.3 0-0.4 0.3-0.5q2.7-0.6 5.4-1.2c1.3-0.3 2.6-0.6 4-0.9 0.3-0.1 0.4 0 0.5 0.3 0.1 0.5 0.2 1.1 0.4 1.6 0.1 0.3 0 0.4-0.3 0.5-1.1 0.2-2.1 0.5-3.1 0.7-0.3 0.1-0.4 0.1-0.3 0.4 0.2 1 0.5 2 0.7 3 0.1 0.3 0.2 0.3 0.5 0.3 1.1-0.3 2.1-0.5 3.2-0.7 0.2-0.1 0.3 0 0.4 0.2 0.1 0.6 0.3 1.2 0.4 1.7 0 0.2 0 0.3-0.2 0.4-3.5 0.7-6.7 1.4-9.9 2.2q0-0.1 0 0z"/>
                    <path id="Layer" fill-rule="evenodd" class="s1" d="m55.9 151.8c0.7 1 0.4 2 0.2 3-0.1 0.8-0.3 1.5-0.4 2.4-0.7-0.3-1.3-0.6-2-0.9-0.2-0.1-0.2-0.3-0.1-0.4 0.1-0.9 0.3-1.7 0.5-2.6 0.2-1-0.3-1.7-1.3-2-0.3-0.1-0.3 0.2-0.3 0.3-0.5 0.9-0.9 1.9-1.3 2.8-0.2 0.4-0.3 0.6-0.7 0.3q-0.3-0.1-0.6-0.3c-1-0.5-1-0.5-0.6-1.5 1.2-2.6 2.5-5.2 3.7-7.8 0.2-0.4 0.3-0.4 0.7-0.3 1.4 0.5 2.8 1.1 4 2 1.1 0.9 1.6 1.9 1.2 3.1-0.4 1.3-1.2 2-2.7 2.1-0.1-0.2-0.2-0.2-0.3-0.2zm-1.1-1.6c0.9 0 1.4-0.3 1.6-0.9 0.2-0.6 0.1-1.1-0.4-1.5-0.4-0.3-0.8-0.5-1.3-0.7-0.2-0.1-0.3 0-0.4 0.2-0.3 0.7-0.6 1.3-1 2-0.1 0.1-0.1 0.3 0 0.3 0.7 0.2 1.2 0.6 1.5 0.6z"/>
                    <path id="Layer" fill-rule="evenodd" class="s1" d="m66.9 159.8q-1.8 0.9-3.3-0.3c-1.1-0.9-1.3-2.1-1.1-3.4 0.3-1.6 1.1-3 2.9-3.4 1.4-0.3 2.6 0.2 3.3 1.5 0.4-0.7 0.4-0.7 1.3-0.5 1 0.3 1 0.3 0.7 1.3-0.5 1.9-1 3.7-1.6 5.6-0.4 1.3-1 2.4-2.5 2.8-1.8 0.4-3.4-0.2-4.9-1.2-0.1-0.1-0.2-0.2-0.1-0.4 0.2-0.4 0.5-0.8 0.7-1.2 0.1-0.2 0.2-0.1 0.3 0 0.5 0.4 1.1 0.8 1.7 0.9 1.5 0.4 2.4-0.2 2.6-1.7zm-2-2.8c0 0.9 0.4 1.5 1.2 1.6 0.7 0.1 1.3-0.3 1.5-1.2 0.1-0.3 0.2-0.7 0.3-1.1 0.2-0.7-0.1-1.3-0.7-1.6-0.6-0.3-1.3-0.1-1.7 0.5q-0.6 0.7-0.6 1.8z"/>
                    <path id="Layer" class="s1" d="m74.9 155.5c0.8-0.7 1.6-0.9 2.6-0.7 1.2 0.3 1.9 1.3 1.9 2.6 0 1-0.2 2-0.3 3-0.1 0.7-0.2 1.3-0.3 2 0 0.3-0.1 0.4-0.5 0.3-0.5-0.1-1-0.2-1.5-0.2-0.4 0-0.4-0.1-0.4-0.5 0.2-1.3 0.4-2.5 0.5-3.8 0-0.2 0-0.3 0-0.5-0.1-0.7-0.4-1.1-1.1-1.2-0.7 0-1.2 0.4-1.3 1.1-0.2 1.4-0.4 2.7-0.6 4.1 0 0.3-0.1 0.4-0.4 0.3-0.5-0.1-1.1-0.2-1.6-0.2-0.2 0-0.3-0.1-0.3-0.4 0.5-3.4 1-6.7 1.4-10.1 0-0.3 0.1-0.5 0.5-0.4 0.5 0.1 1 0.2 1.5 0.2 0.3 0 0.4 0.1 0.3 0.4-0.2 1.2-0.3 2.3-0.5 3.5 0.1 0.2 0.1 0.3 0.1 0.5z"/>
                    <path id="Layer" class="s1" d="m10.2 71.5c2.5-1 4.8-1.7 7.3-0.4 0.3 0.1 0.6 0.3 0.9 0.4 1.1 0.5 1.8 1.4 2.1 2.5 0.6 2 0.9 4.1 0.2 6.1-0.7 1.9-2.2 2.6-4.1 2.1-1.2-0.3-2.4-0.9-3.4-1.6-0.3-0.2-0.6-0.4-0.9-0.8-0.1-0.1-0.3-0.3-0.1-0.5 0.2-0.2 0.4 0 0.6 0.1 0.2 0.1 0.4 0.3 0.5 0.4 0.5 0.4 1.1 0.6 1.8 0.8 1.3 0.2 2.3-0.3 2.8-1.5 0.6-1.2 0.6-2.6 0.5-3.9-0.1-0.7-0.2-1.4-0.4-2.1-0.4-1-0.8-1.2-1.8-1-1 0.2-2 0.5-2.9 0.9-0.6 0.2-1 0.2-1.4-0.2-0.5-0.4-1-0.8-1.7-1.3z"/>
                    <path id="Layer" class="s1" d="m108.2 157.7c0.2 0.5 0.4 1 0.7 1.5 0.1 0.2 0.1 0.3-0.1 0.5-1.7 1-3.5 1.5-5.4 1-2-0.5-3-2-3.4-3.9-0.8-3.4 1.1-6.1 4.7-6.7 0.6-0.1 1.2-0.2 1.8-0.1 0.3 0 0.4 0.1 0.4 0.4 0 0.4 0 0.9 0 1.3 0 0.3-0.1 0.3-0.4 0.3-0.8-0.1-1.6 0-2.3 0.4-1.7 0.7-2.3 2.4-1.6 4.3 0.6 1.7 2 2.4 3.8 2 0.5-0.4 1.1-0.6 1.8-1z"/>
                    <path id="Layer" class="s1" d="m18.6 121c-1.1-0.3-1.7-1-2-2-0.3-1-0.1-1.8 0.7-2.6 0.4-0.4 0.8-0.6 1.3-0.8 1.3-0.5 2.6-1.1 3.8-1.6 0.3-0.1 0.4-0.1 0.5 0.2q0.3 0.8 0.6 1.5c0.1 0.3 0.1 0.4-0.2 0.5-1.1 0.4-2.2 0.9-3.3 1.4-0.2 0.1-0.4 0.2-0.7 0.3-0.7 0.4-0.9 1-0.6 1.6 0.3 0.6 1 0.8 1.7 0.5q1.8-0.7 3.6-1.5c0.4-0.2 0.6-0.2 0.7 0.3 0.2 0.5 0.4 1 0.6 1.4 0.1 0.2 0.1 0.3-0.2 0.4-2.2 0.9-4.3 1.8-6.4 2.8-0.2 0.1-0.3 0-0.3-0.1-0.1-0.2-0.2-0.4-0.3-0.7-0.1-0.3-0.4-0.6-0.4-0.9 0.1-0.4 0.6-0.4 0.9-0.7z"/>
                    <path id="Layer" class="s1" d="m154.4 106.1c-0.7-0.9-0.9-1.8-0.5-2.8 0.4-1.3 1.6-2 3.1-1.7 1.6 0.3 3.1 0.7 4.7 1 0.3 0.1 0.3 0.2 0.2 0.4-0.1 0.6-0.3 1.1-0.4 1.7 0 0.3-0.2 0.3-0.4 0.2-1.2-0.3-2.4-0.5-3.7-0.8-0.2 0-0.3-0.1-0.5-0.1-0.8-0.1-1.3 0.2-1.4 0.9-0.1 0.7 0.3 1.3 1 1.4 1.1 0.3 2.1 0.5 3.2 0.7 1.2 0.2 1.2 0.2 0.9 1.4-0.3 1.1-0.3 1.1-1.4 0.9-1.9-0.4-3.9-0.9-5.8-1.2-0.4-0.1-0.5-0.2-0.3-0.6 0.1-0.2 0.1-0.4 0.1-0.6 0.2-0.8 0.2-0.8 1.2-0.8z"/>
                    <path id="Layer" class="s1" d="m40.5 140.4c0.8-0.1 1.4-0.1 2.1 0.3 1.4 0.7 1.9 2.1 1.3 3.5-0.2 0.4-0.4 0.7-0.6 1-0.9 1.1-1.7 2.2-2.6 3.3-0.2 0.2-0.3 0.2-0.5 0.1-0.4-0.4-0.9-0.7-1.3-1-0.3-0.2-0.3-0.3-0.1-0.6 0.8-1 1.5-1.9 2.3-2.9 0.1-0.1 0.2-0.2 0.3-0.4 0.5-0.7 0.4-1.3-0.2-1.7-0.6-0.4-1.3-0.3-1.8 0.3-0.6 0.7-1.2 1.5-1.8 2.3-0.3 0.3-0.5 0.7-0.8 1-0.1 0.2-0.3 0.2-0.5 0.1-0.4-0.4-0.9-0.7-1.4-1.1-0.3-0.2-0.2-0.3 0-0.5 1-1.3 2-2.6 3.1-3.9 0.4-0.5 0.8-1 1.1-1.5 0.2-0.3 0.3-0.3 0.6-0.1 0.3 0.3 0.7 0.6 1 0.8 0.3 0.2 0.3 0.3 0.1 0.6-0.1 0-0.1 0.1-0.3 0.4z"/>
                    <path id="Layer" fill-rule="evenodd" class="s1" d="m116.8 154.4c0 2.1-1.9 3.9-4.2 3.9-2.4 0-3.7-2.1-3.8-4.2 0-2.1 1.9-3.8 4.2-3.8 2.1-0.1 3.8 1.7 3.8 4.1zm-5.7-0.7c0.1 0.8 0.4 1.8 1.2 2.4 0.8 0.6 1.9 0.2 2-0.8 0.2-1-0.2-1.9-0.8-2.7-0.4-0.5-1-0.7-1.6-0.5-0.5 0.3-0.8 0.8-0.8 1.6z"/>
                    <path id="Layer" fill-rule="evenodd" class="s1" d="m158.7 114.2c0 2.3-1.7 4.1-3.8 4.1-2.3 0-4.2-1.7-4.2-3.9 0-2.4 1.7-4.2 3.8-4.2 2.4 0.1 4.2 1.8 4.2 4zm-4.5-1.5c-0.9 0-1.4 0.3-1.6 0.8-0.2 0.6 0 1.2 0.5 1.6 0.6 0.5 1.4 0.8 2.2 0.9 0.7 0.1 1.2-0.3 1.5-0.8 0.2-0.5 0.1-1.1-0.4-1.5-0.7-0.7-1.5-1-2.2-1z"/>
                    <path id="Layer" fill-rule="evenodd" class="s1" d="m31.9 140.4c-1.1 0-1.7-0.3-2.3-0.9-0.8-0.8-1-1.9-0.4-2.8 0.5-1 1.7-1.5 2.8-1.2 1 0.2 1.8 0.8 2.5 1.5 0.1 0.1 0.2 0.3 0.4 0.2q0.3-0.2 0.3-0.6c0-0.3-0.2-0.5-0.3-0.8q-0.8-0.9-1.8-1.2c-0.3-0.1-0.3-0.2-0.1-0.4 0.1-0.1 0.1-0.2 0.2-0.4 0.5-0.8 0.5-0.8 1.3-0.4q1.2 0.6 2.1 1.8c1 1.3 1 2.6-0.1 3.8-0.6 0.7-1.4 1.4-2.1 2.1-0.3 0.3-0.7 0.7-1 1.1-0.4 0.5-0.4 0.5-0.9 0-0.2-0.2-0.3-0.4-0.5-0.5-0.5-0.5-0.8-0.8-0.1-1.3zm0.4-1.2c0.4 0 1.4-0.6 1.3-0.9-0.1-0.4-0.5-0.5-0.7-0.7q-0.3-0.1-0.6-0.3c-0.3-0.1-0.6 0-0.8 0.1-0.3 0.2-0.5 0.6-0.4 0.9 0.2 0.6 0.7 0.9 1.2 0.9z"/>
                    <path id="Layer" class="s1" d="m141.1 130.4c0-1.2 1.2-2.9 2.3-3.4 0.2-0.1 0.3-0.1 0.4 0.1 0 0 0 0.1 0.1 0.1 0.2 0.3 0.6 0.6 0.7 1 0 0.4-0.6 0.4-0.8 0.7-0.2 0.2-0.5 0.5-0.6 0.8-0.1 0.2-0.1 0.5 0.1 0.7 0.2 0.2 0.4 0.2 0.6 0.1q0.6-0.3 1.2-0.6c1.1-0.6 2.1-0.5 2.9 0.2 0.7 0.7 0.9 1.5 0.5 2.4-0.4 1.3-1.3 2.2-2.5 2.9-0.2 0.1-0.4 0.1-0.5-0.1-0.2-0.4-0.7-0.7-0.7-1 0-0.4 0.6-0.4 0.9-0.7 0.3-0.3 0.7-0.6 0.9-0.9 0.1-0.2 0.2-0.5 0-0.8-0.2-0.2-0.5-0.3-0.8-0.1-0.2 0.1-0.5 0.3-0.7 0.4-0.4 0.2-0.8 0.4-1.2 0.5-1.5 0.3-2.8-0.7-2.8-2.3z"/>
                    <path id="Layer" class="s1" d="m148.5 122.7c-0.5 0.4-1 0.7-1.3 1.2-0.2 0.3-0.3 0.6 0 0.9 0.3 0.3 0.6 0.1 0.8 0 0.4-0.3 0.8-0.6 1.2-0.8 0.9-0.6 1.8-0.5 2.6 0.1 0.8 0.6 1.1 1.5 0.8 2.6q-0.6 1.8-2.1 3-0.3 0.3-0.6 0c-0.3-0.3-0.8-0.6-0.8-1-0.1-0.4 0.6-0.5 0.8-0.8 0.3-0.3 0.6-0.6 0.8-1.1 0.1-0.2 0.1-0.5-0.1-0.7-0.2-0.2-0.5-0.2-0.7 0-0.6 0.3-1 0.8-1.6 1-1.4 0.6-2.8 0.1-3.1-1.3-0.2-0.6-0.1-1.2 0.1-1.7 0.3-0.9 0.9-1.6 1.7-2.2q0.3-0.3 0.6 0c0.3 0.1 0.6 0.4 0.9 0.8z"/>
                    <path id="Layer" class="s1" d="m87.3 161.1c0.7 0.3 1.5 0.5 2.3 0.4 0.3 0 0.7-0.1 0.7-0.5 0.1-0.4-0.2-0.6-0.6-0.7-0.5-0.2-1-0.3-1.5-0.5-0.8-0.4-1.3-0.9-1.3-1.9 0-1 0.4-1.7 1.3-2.1 1.1-0.6 2.3-0.6 3.5-0.2 0.2 0.1 0.3 0.1 0.2 0.3 0 0 0 0 0 0.1-0.1 0.4 0 0.9-0.3 1.2-0.3 0.3-0.7-0.1-1.1-0.1-0.3 0-0.7-0.1-1 0-0.3 0.1-0.4 0.2-0.5 0.5 0 0.3 0.1 0.4 0.4 0.5 0.4 0.2 0.9 0.3 1.3 0.5 1.5 0.6 2.1 1.9 1.5 3.2-0.3 0.7-1 1.1-1.7 1.3-1.1 0.3-2.2 0.3-3.3-0.1-0.3-0.1-0.5-0.2-0.3-0.5 0.2-0.5 0.3-0.9 0.4-1.4z"/>
                    <path id="Layer" class="s1" d="m84.2 153.5c0 0.5 0 1-0.1 1.5-0.1 0.4 0.1 0.6 0.5 0.5 0.2 0 0.3 0 0.5 0 0.7 0 0.7 0 0.7 0.7 0 1 0 1-1.1 1-0.7 0-0.7 0-0.7 0.7 0 0.7-0.1 1.4-0.1 2.1 0 0.9 0.3 1.2 1.2 1.2 0.3 0 0.4 0.1 0.4 0.4q0 0.3 0 0.6c0 0.9 0 0.9-0.9 0.9q-0.5 0-0.9 0c-1.4-0.2-2-0.9-2.1-2.2-0.1-1.1 0-2.3 0.1-3.4 0-0.3 0-0.5-0.4-0.4-0.5 0.1-0.8-0.2-0.6-0.7q0-0.1 0-0.3c0-0.7 0-0.7 0.7-0.7q0.3 0 0.3-0.3c0-0.1 0-0.1 0-0.2 0.1-1 0.1-1 1-1.2 0.6 0 1-0.1 1.5-0.2z"/>
                    <path id="Layer" class="s1" d="m57.2 23c-0.7-1.1-1.3-2.1-2-3.1-1-1.6-2.1-3.2-3.1-4.9-0.1-0.2-0.3-0.4-0.2-0.6 0-1.1 0.1-2.1 0.3-3.2 0.2 0.1 0.2 0.2 0.3 0.4 1.2 2.1 2.5 4.2 3.7 6.4 0.9 1.5 1.3 3.2 1 5z"/>
                    <path id="Layer" class="s1" d="m60.3 150.7c0.4 0.1 0.8 0.3 1.2 0.4 1 0.4 1 0.4 0.6 1.3q-1 2.9-2.1 5.7c-0.1 0.3-0.2 0.4-0.6 0.3-0.5-0.2-1-0.4-1.5-0.5-0.3-0.1-0.4-0.2-0.2-0.5 0.8-2.1 1.6-4.3 2.4-6.4 0-0.1 0-0.3 0.2-0.3z"/>
                    <path id="Layer" class="s1" d="m143 138.8c-0.1-0.1-0.2-0.2-0.2-0.2-1.7-1.6-3.3-3.2-5-4.7-0.2-0.2-0.2-0.3 0-0.5 0.4-0.4 0.8-0.8 1.1-1.2 0.2-0.2 0.3-0.2 0.6 0 1.5 1.5 3.1 2.9 4.6 4.4 0.6 0.6 0.6 0.6 0 1.2-0.3 0.3-0.5 0.6-0.8 0.9-0.2 0-0.2 0-0.3 0.1z"/>
                    <path id="Layer" class="s1" d="m149.2 117.8c0.1 0 0.2 0.1 0.3 0.1 2 1.1 3.9 2.1 5.9 3.1 0.3 0.2 0.4 0.3 0.2 0.7-0.3 0.4-0.5 0.9-0.7 1.4-0.1 0.2-0.2 0.3-0.5 0.2-2-1.1-4.1-2.2-6.1-3.3-0.2-0.1-0.3-0.2-0.1-0.5 0.3-0.5 0.5-1 0.8-1.5 0-0.1 0-0.2 0.2-0.2z"/>
                    <path id="Layer" class="s1" d="m148.4 38.5c0-0.4-0.2-0.6-0.3-0.8-0.2-0.4-0.1-0.7 0.3-1 0.9-0.7 3-0.5 3.8 0.4 0.2 0.3 0.4 0.6 0.2 1-0.3 0.4-0.7 0.4-1.1 0.4-0.2 0-0.1-0.2-0.1-0.3-0.1-0.8-0.3-1.1-1.1-1.4-0.4-0.1-0.5 0-0.5 0.4 0 0.4 0.2 0.8 0.4 1.1 0.4 0.7 0.9 1.4 1.4 2-0.6 0.4-1.2 0.3-1.6-0.1-0.8-0.8-1.8-1.2-2.9-1.5-0.2-0.1-0.4-0.1-0.5-0.3 0.6-0.3 1.3-0.1 2 0.1z"/>
                    <path id="Layer" class="s1" d="m147.3 63.9c0.1-0.5 0.1-1 0.2-1.4 0.1-0.3 0-0.4-0.3-0.6-1-0.5-1-0.5-0.8-1.6 0.2-1 0.2-1 1.2-0.7 0.3 0.1 0.7 0.1 1 0.4 0.2 0.3-0.1 0.6-0.1 1-0.2 1-0.2 1 0.8 1.4 0.4 0.2 0.6 0.4 0.5 0.9-0.1 0.4-0.1 0.9-0.2 1.3 0 0.2-0.1 0.4-0.3 0.3-0.5-0.2-1-0.2-1.5-0.5-0.4-0.2-0.6-0.3-0.5-0.5z"/>
                    <path id="Layer" class="s1" d="m65.6 7.1c0.5 0.1 0.9 0.2 1.3 0.4 0.4 0.1 0.6 0.1 0.8-0.3 0.6-0.9 0.6-0.9 1.7-0.6 0.4 0.1 0.9 0 1 0.3 0.1 0.3-0.2 0.7-0.4 1-0.5 1.1-0.3 0.9-1.4 0.7 0 0 0 0-0.1 0-0.4-0.1-0.8-0.3-1.1-0.3-0.3 0.1-0.4 0.6-0.6 0.9-0.2 0.2-0.3 0.3-0.6 0.2q-0.8-0.2-1.5-0.3c-0.1 0-0.3-0.1-0.2-0.3 0.3-0.6 0.5-1.1 0.8-1.7q0.3 0 0.3 0z"/>
                    <path id="Layer" class="s1" d="m106.1 9.9c-0.1-0.1-0.2-0.1-0.3-0.2-0.4-0.4-0.7-0.7-1.1-1.1-0.2-0.2-0.1-0.2 0-0.4 1.3-1 1.4-1 2.6 0.2 0.4 0.4 0.7 0.5 1.2 0.2 0.7-0.5 1.2-0.3 1.7 0.3 0.8 0.9 0.9 0.8-0.1 1.5-0.8 0.5-0.8 0.5-1.5-0.1-0.3-0.2-0.6-0.5-0.8-0.7-0.2-0.3-0.4-0.3-0.7-0.1-0.4 0.1-0.7 0.3-1 0.4z"/>
                    <path id="Layer" class="s1" d="m142.8 27.3c-0.5 0-0.8 0.1-1.2 0.1-1 0-0.8 0.2-1.1-0.8v-0.1c-0.1-0.3-0.1-0.7-0.4-1-0.2-0.2-0.6 0-1 0-0.3 0-0.5-0.1-0.5-0.4-0.1-0.4-0.3-0.9-0.4-1.3-0.1-0.3 0-0.4 0.3-0.4h0.1c0.5 0 1-0.3 1.4-0.1 0.4 0.2 0.3 0.8 0.4 1.3 0.1 0.4 0.4 0.5 0.8 0.5 1 0 1 0 1.2 0.9 0.1 0.4 0.3 0.8 0.4 1.3z"/>
                    <path id="Layer" class="s1" d="m48.7 33.6c-0.3 0-0.6 0.3-0.9 0.4-0.3 0.1-0.4 0.1-0.6-0.2-0.4-0.9-0.5-1.8 0-2.6 0.2-0.4 0.5-0.7 1-0.5 0.5 0.1 0.3 0.6 0.4 1-0.4-0.1-0.6-0.1-0.9 0.1-0.2 0.2-0.4 0.4-0.4 0.7-0.1 0.1-0.2 0.3 0 0.5 0.2 0.1 0.3 0 0.5 0 0.6-0.3 1.3-0.7 1.8-1.2 0.2-0.1 0.3-0.3 0.5-0.4 0.3 0.6 0.3 1-0.2 1.5-0.6 0.6-0.8 1.5-1.1 2.5-0.3-0.8-0.1-1.3-0.1-1.8z"/>
                    <path id="Layer" class="s1" d="m31.3 29c0-0.8 0-1.5 0-2.3q0-0.3 0.3-0.3c0.6-0.1 1.2-0.3 1.8-0.5 0.2-0.1 0.3 0 0.3 0.2q0 0.9 0 1.8c0 0.2 0 0.3-0.2 0.3-0.7 0.3-1.5 0.5-2.2 0.8z"/>
                    <path id="Layer" class="s1" d="m8 74.4c0.2 0 0.2 0.1 0.3 0.2 0.4 0.4 0.6 0.9 0.9 1.3 0 0.1 0.1 0.2 0 0.2-0.3 0.5-0.8 1-1.2 1.4-0.1 0.1-0.2-0.1-0.3-0.1-0.4-0.3-0.8-0.7-1.1-1.1-0.1-0.2-0.2-0.4 0-0.6 0.4-0.5 0.8-0.9 1.3-1.3 0 0.1 0 0.1 0.1 0z"/>
                    <path id="Layer" class="s1" d="m146.7 119.1c-0.7 0-1.2-0.5-1.2-1.1 0-0.7 0.6-1.3 1.2-1.4 0.7 0 1.2 0.5 1.2 1.2 0 0.6-0.6 1.2-1.2 1.3z"/>
                    <path id="Layer" class="s1" d="m135.6 131.4c0-0.7 0.6-1.3 1.3-1.3 0.7 0 1.2 0.5 1.2 1.1 0 0.7-0.6 1.3-1.3 1.3-0.7 0.1-1.2-0.4-1.2-1.1z"/>
                    <path id="Layer" class="s1" d="m63.3 149.1c0 0.7-0.5 1.2-1.2 1.2-0.7 0-1.4-0.6-1.4-1.2 0-0.7 0.5-1.2 1.2-1.2 0.8 0 1.4 0.5 1.4 1.2z"/>
                    <path id="Layer" class="s0" d="m143.4 43.5c0.1 0 0.1 0.1 0 0 0.1 0 0 0 0 0z"/>
                    <path id="Layer" class="s1" d="m63.5 98.5c1.3 1.4 2.5 2.9 3.7 4.3 4.3 4.9 6.7 10.6 8 16.9 0 0.1 0.1 0.2 0.1 0.3 0.2 1.2 0.4 2.4 0.5 3.6 0.1 0.8 0 1.7 0 2.5-0.1 1.8-0.2 3.7 0.2 5.5 0.2 0.8 0.5 1.6 1.1 2.2 0.3 0.3 0.6 0.7 0.7 1.1 0.7 1.5 0.3 2.8-1 3.8-0.8 0.5-1.7 1.1-2.5 1.6-0.3 0.2-0.6 0.2-1 0.2-1.3-0.3-2.2-1-2.9-2-1.6-2.4-3.7-4.3-5.8-6.3-1.7-1.5-3.6-2.6-5.4-4-1.7-1.4-3.4-2.8-5-4.3-3.3-3.1-6.4-6.5-9-10.3-1.8-2.7-3.4-5.5-4.2-8.7-0.4-1.5-0.5-3.1-0.7-4.6-0.3-2.5-0.6-5-0.7-7.6-0.1-2.4-0.1-4.9-0.1-7.3 0.1-3.9 0.9-7.7 2.5-11.2 0.2-0.4 0.4-0.7 0.6-1.1 0.2-0.3 0.4-0.6 0.9-0.6 0.4 0 0.7 0.4 0.9 0.7 0.3 0.6 0.3 1.3 0.1 1.9-0.5 2.1-0.2 4.2 0.1 6.3 0.5 3.7 1.2 7.3 2 10.9 0.5 2.1 1.4 3.9 2.5 5.7 2.6 4.1 5.7 7.7 9.7 10.5q0.3 0.1 0.6 0.3h0.1v-0.1c-0.8-1.2-1.6-2.4-2.5-3.6-1.7-2.4-2.9-4.9-3.6-7.8-0.6-2.5-1.3-5-1.6-7.6-0.1-0.7-0.1-1.3 0.2-1.9 0.2-0.6 0.5-1.1 1.2-1.1 0.6-0.1 1.1 0.3 1.5 0.7 0.9 1.1 1.4 2.4 2.1 3.6 0.8 1.3 1.5 2.7 2.6 3.8 0.4 0.5 0.9 0.8 1.4 1.2 1 0.8 1.9 1.6 2.7 2.5z"/>
                    <path id="Layer" fill-rule="evenodd" class="s1" d="m135.9 88.6c-1.4-0.3-2.3-1.3-3-2.5-0.4-0.6-1-1-1.6-1.4q-1.8-1.1-3.9-1.5c-2.7-0.6-5.2-1.7-7.6-3.2-2.9-1.8-5.7-3.7-8.2-6.2-2.1-2.1-3.8-4.7-5.4-7.2-1.4-2.3-2.9-4.5-3.8-7.1-0.7-2.1-2-3.7-3.4-5.3-0.9-1-1.9-2-2.8-3.1-0.4-0.6-0.9-1.3-0.4-2 0.5-0.7 1.2-0.7 2-0.6 1.1 0.1 2 0.7 2.9 1.2 2.5 1.4 4.9 3 7.3 4.6 1.5 1 2.6 2.4 3.7 3.8 1 1.2 1.9 2.5 2.8 3.7 0.1 0.1 0.1 0.3 0.3 0.3 0.1-0.2 0-0.3 0-0.5-0.7-2.7-1.9-5.2-3.4-7.5-1.4-2.3-3-4.4-4.8-6.4-1.4-1.6-3.2-2.7-5-3.7-3.4-1.9-6.8-3.8-10.4-5.4-1.3-0.6-2.7-0.9-4.2-1.1-0.6-0.1-1.2-0.4-1.6-0.8-0.5-0.6-0.3-1.2 0.4-1.5 0.9-0.3 1.9-0.3 2.9-0.4 3.5-0.3 6.9 0.3 10.3 1.3 4.8 1.4 9.4 3.3 14 5.4 2.7 1.3 5.3 2.7 7.4 4.9 1.5 1.5 2.9 3.1 4.1 4.9 4 5.7 7.2 11.8 9.3 18.4 1.1 3.3 2.3 6.4 4 9.4 0.5 0.9 1 1.7 1.7 2.5 0.9 1 1.3 2.3 1.1 3.6 0 0.3-0.1 0.6-0.4 0.8-0.8 0.6-1.6 1.3-2.3 1.9-0.5 0.4-1.2 0.7-2 0.7zm-20.9-26.4q0 0.1 0 0c0 0.1 0.1 0.1 0 0z"/>
                    <path id="Layer" class="s0" d="m115 62.2c0 0 0.1 0.1 0 0 0.1 0.1 0 0.1 0 0q0 0.1 0 0z"/>
                    <path id="Layer" class="s0" d="m91.5 92.3h-0.1c0 0 0 0 0.1 0-0.1-0.1-0.1 0 0 0z"/>
                    <path id="Layer" class="s0" d="m91.8 71c0 0-0.1 0.1-0.1 0-0.1 0 0 0 0.1 0q-0.2 0 0 0z"/>
                    <g id="Layer">
                        <g id="Layer">
                            <path id="Layer" class="s2" d="m124.3 91.2c-8.4-0.8-11.7-6.8-14.7-13.4-2.2-4.9-7.6-12.1-13.8-11.8-5.5 0.2-9.3-2.2-13.1-5.5-6.5-5.6-13.4-9.7-22.1-4 2.8 3.8 0.4 8.3-5 8.8-1.5 0.2-3.1-1-3.6 1.7-0.3 1.9-0.9 3.3 1.6 4.2 1.1 0.5 1.9 2.2 2.5 3.4 3.7 7.9 11.9 13.4 12.4 23.1 0.1 1.2 1.5 2.7 2.7 3.3 2.6 1.2 3.4 3.5 4.7 5.7 1.9 3.2 4.2 6.2 7.7 11.2-0.8-6.8 2.6-5.6 5.1-5.6 2.5 0.1 5.2 0 7.5 0.8 2 0.7 3 0.6 4-1.1 2.1-3.8 5.9-4.9 9.7-5 5.4-0.2 10.2-2.3 15.2-3.9 4.4-1.4 4.3-5.6 4.6-8.9 0.2-3.2-3.3-2.9-5.4-3z"/>
                        </g>
                    </g>
                    <g id="Layer">
                        <g id="Layer">
                            <path id="Layer" class="s3" d="m100.9 93.1l-15.9 8.1"/>
                            <path id="Layer" class="s0" d="m84.9 100.7l15.8-8.1 0.5 0.9-15.9 8.1z"/>
                        </g>
                        <g id="Layer">
                            <path id="Layer" class="s3" d="m78.6 92.8l15.6 8.5"/>
                            <path id="Layer" class="s0" d="m78.4 93.3l0.4-0.9 15.7 8.6-0.5 0.8z"/>
                        </g>
                    </g>
                    <g id="Layer">
                        <path id="Layer" fill-rule="evenodd" class="s0" d="m94.2 75.5q0.5-0.1 0.9 0c0.2 0 0.3 0.1 0.2 0.3-0.3 0.6-0.7 1.1-1.3 1.5 0.5 0.1 1 0.1 1.4 0.3 0.3 0.1 0.6 0.3 0.6 0.5 0 0.3-0.4 0.3-0.7 0.4-0.1 0-0.2 0.1-0.4 0.1 0.5 0.3 0.9 0.5 1.2 0.8 0.1 0.1 0.3 0.3 0.2 0.5-0.1 0.2-0.3 0.2-0.5 0.2-0.6 0.1-1.3 0.1-2 0q0.7 0.6 1.2 1.2c0.4 0.5 0.7 1.1 0.5 1.8-0.1 0.5-0.2 0.5-0.5 0.2-0.6-0.6-1.1-1.1-1.9-1.6 0.2 0.6 0.4 1 0.4 1.5 0 0.6-0.1 0.6-0.6 0.4-0.8-0.4-1.5-0.9-2.1-1.7-0.1 0.4 0 0.8 0 1.1q0 0.3 0 0.6c0 0.8 0 0.8-0.7 1 0.2 0.3 0.8 0 0.7 0.6 0 0.4 0 0.7 0 1.1 0 0.4-0.5 0.2-0.8 0.5 0.6 0.1 0.9 0.3 0.8 0.9-0.1 0.5-0.6 0.2-0.8 0.5 0.4 0.1 0.9 0.2 0.8 0.8-0.1 0.5-0.5 0.3-0.8 0.6 0.6 0.1 0.9 0.3 0.7 0.9-0.1 0.4-0.5 0.2-0.7 0.5 0.5 0.1 0.9 0.3 0.7 1-0.1 0.4-0.6 0.2-0.8 0.4 0.2 0.1 0.3 0.1 0.5 0.2 0.1 0 0.2 0.1 0.2 0.1 0 0.5 0.3 0.3 0.6 0.4 0.3 0 0.5 0.1 0.2 0.4 0 0.1-0.1 0.1-0.1 0.2v0.1c0.1 0 0.3 0 0.4 0 0.2 0 0.5 0 0.6 0.2 0.1 0.2-0.2 0.3-0.3 0.4-0.2 0.2-0.2 0.4 0.1 0.5 0.4 0.1 0.2 0.3 0 0.5-0.5 0.4-1.2 0.5-1.8 0.5-0.8 0-1.6 0.1-2.5-0.1-0.3-0.1-0.6-0.2-0.9-0.4-0.2-0.2-0.3-0.3 0.1-0.4 0.2-0.1 0.4-0.2 0.1-0.4-0.1-0.1-0.4-0.3-0.3-0.4 0.1-0.2 0.4-0.2 0.7-0.2 0.1 0 0.2 0 0.3 0.1v-0.1c-0.3-0.6-0.3-0.6 0.4-0.6q0.3 0 0.3-0.3c0-0.5 0-0.5 0.6-0.7-0.2-0.2-0.6-0.1-0.6-0.5 0-0.5 0.4-0.4 0.6-0.6-0.2-0.1-0.6-0.1-0.6-0.5 0-0.4 0.3-0.4 0.6-0.5-0.1-0.1-0.2-0.1-0.3-0.2 0.1-0.1 0.2-0.1 0.5-0.2-0.7 0-0.7-0.4-0.7-0.8 0-0.5 0.3-0.4 0.6-0.6-0.2-0.1-0.6-0.1-0.6-0.5 0-0.4-0.1-0.8 0.6-0.9-0.3-0.2-0.6-0.1-0.6-0.6 0-0.4 0.4-0.4 0.6-0.5-0.2-0.2-0.6-0.1-0.6-0.5 0-0.4 0.3-0.4 0.6-0.5-0.2-0.2-0.5-0.1-0.5-0.4 0-0.3 0.4-0.2 0.5-0.4-0.7 0-0.6-0.5-0.6-0.9q0-0.5 0-1.2c-0.6 0.9-1.4 1.4-2.2 1.8-0.5 0.3-0.6 0.2-0.6-0.4 0-0.5 0.2-1 0.4-1.5-0.4 0.2-0.7 0.4-0.9 0.7-0.4 0.3-0.7 0.6-1 1-0.2 0.3-0.3 0.2-0.4-0.1-0.2-0.5-0.1-0.9 0.1-1.4 0.3-0.7 0.9-1.2 1.6-1.8-0.2 0-0.4 0-0.5 0.1-0.6 0.1-1.2 0-1.7-0.1-0.3 0-0.3-0.2-0.2-0.4 0.2-0.4 0.6-0.6 0.9-0.8 0.1-0.1 0.3-0.1 0.5-0.2q0 0 0 0c1.3 0 2.6-0.1 4 0.1-0.3 0.1-0.4 0.4-0.6 0.5-1.3 0.6-2.4 1.5-3.4 2.4-0.1 0.1-0.3 0.2-0.3 0.5 0.7-0.6 1.4-1.2 2.1-1.7 0.7-0.5 1.5-1 2.4-1.1-1 0.7-1.8 1.7-2.4 2.7 0.2 0 0.3-0.2 0.3-0.3 0.6-0.7 1.1-1.5 1.9-2 0.6-0.4 0.9-0.4 1.5 0 0.8 0.5 1.3 1.3 1.9 2 0.1 0.1 0.1 0.3 0.4 0.4-0.7-1.1-1.5-2-2.4-2.8 1.8 0.5 3.1 1.7 4.5 2.7-1.1-1.1-2.4-2.1-3.9-2.8 0.1 0 0.2-0.1 0.3-0.1-0.1-0.1-0.2-0.1-0.3-0.3 1.5 0.1 2.9 0.5 4.4 0.6-1.4-0.6-3.1-1-4.9-1.1 1.4-0.5 2.8-0.7 4.2-1.1-1.5 0.1-2.9 0.5-4.3 0.8 1-0.9 2.1-1.7 3.2-2.6-0.3 0-0.4 0.1-0.5 0.2-0.9 0.7-1.7 1.3-2.6 2-0.1 0.1-0.2 0.2-0.3 0.2-0.1-0.1-0.1-0.3-0.1-0.4 0.4-1 0.7-1.9 1.1-2.9 0.1-0.2 0.2-0.3 0.2-0.5-0.7 1-1 2.1-1.5 3.2-0.2-0.6-0.4-1.2-0.7-1.7-0.5-1.3-0.5-1.3-0.9-1.5 0.6 1.1 1 2.2 1.4 3.3 0.1 0.2 0.1 0.4-0.1 0.6-1-0.7-1.9-1.6-3-2.2q0.5 0.2 1 0.4c0.2 0.1 0.3 0.1 0.6 0.3-0.4-0.6-0.4-1.2-0.4-1.8 0-0.3 0-0.7 0.2-0.8 0.3-0.1 0.6 0.1 0.9 0.3 0.5 0.3 0.8 0.8 1.1 1.4q0.3-0.4 0.6-0.9c0.3-0.4 0.7-0.6 1.2-0.8 0.3-0.1 0.4 0 0.5 0.3 0.2 0.3 0.1 1-0.1 1.8 0.8-0.3 1.5-0.7 2.4-0.8zm-10.5 3.2c-0.3-0.2-0.3-0.3-0.1-0.5 0.4-0.4 1-0.4 1.5-0.5 0.1 0 0.2 0 0.4 0-0.6-0.4-1-0.8-1.3-1.3-0.2-0.5-0.2-0.6 0.4-0.6 0.5 0 1 0.1 1.5 0.3 1 0.9 2.1 1.6 3.1 2.5-1.4-0.3-2.9-0.7-4.4-0.8 1.4 0.4 2.9 0.6 4.2 1.1-0.5 0-1-0.1-1.6-0.1-0.5 0-1.1 0-1.6 0-0.5 0-0.9 0-1.4 0.1q-0.3-0.1-0.7-0.2zm2.3-2.7q0.1 0 0.1 0.1 0.1 0 0.1 0-0.1 0-0.2-0.1zm-1.7 3q0.1 0 0.3 0-0.1 0-0.2-0.1 0 0.1-0.1 0.1z"/>
                        <path id="Layer" class="s2" d="m90.1 78.7c1.8 0.1 3.5 0.4 5.2 0.9-1.5-0.2-2.9-0.6-4.4-0.6 0 0.2 0.2 0.1 0.3 0.3-0.1 0-0.2 0-0.3 0.1 1.5 0.7 2.8 1.7 3.9 2.8-1.4-1-2.7-2.2-4.5-2.7 0.9 0.8 1.7 1.7 2.4 2.8-0.3-0.1-0.4-0.2-0.4-0.4-0.6-0.7-1.1-1.5-1.9-2-0.6-0.4-0.9-0.4-1.5 0-0.8 0.6-1.3 1.3-1.9 2-0.1 0.1-0.1 0.3-0.3 0.3q0.9-1.7 2.4-2.7c-0.9 0.1-1.7 0.6-2.4 1.1-0.7 0.5-1.4 1.1-2.1 1.7 0-0.3 0.1-0.4 0.3-0.5 1.1-0.9 2.1-1.8 3.4-2.4 0.2-0.1 0.3-0.4 0.6-0.5-1.4-0.2-2.8-0.1-4.3-0.1 0.5-0.2 1-0.1 1.5-0.2 0.5 0 1.1 0 1.6 0 0.5 0 1 0 1.6 0.1-1.4-0.5-2.8-0.7-4.2-1.1 1.5 0.1 2.9 0.5 4.4 0.8-1-0.9-2.1-1.7-3.2-2.6 1.1 0.7 2.2 1.5 3.2 2.3 0.2-0.2 0.1-0.4 0.1-0.6-0.4-1.1-0.8-2.2-1.4-3.3 0.3 0.2 0.4 0.2 0.9 1.5 0.2 0.5 0.4 1.1 0.7 1.7 0.5-1.1 0.8-2.3 1.5-3.2 0.1 0.2-0.1 0.3-0.2 0.5-0.4 0.9-0.8 1.9-1.1 2.9-0.1 0.2-0.1 0.3 0.1 0.4 0.1 0.1 0.2-0.1 0.3-0.2 0.9-0.7 1.7-1.3 2.6-2 0.1-0.1 0.2-0.2 0.5-0.2-1.1 0.9-2.2 1.6-3.2 2.6 1.4-0.3 2.9-0.6 4.3-0.8-1.7 0.7-3.1 0.9-4.5 1.3z"/>
                    </g>
                </g>
            </g>
        </g>
    </g>
</svg>
