<svg version="1.2" xmlns="http://www.w3.org/2000/svg" viewBox="0 0 517 175" width="517" height="175">
    <title>logo-circle-svg</title>
    <style>
        .s0 { fill: #3085c7 }
        .s1 { fill: #ffffff }
        .s2 { fill: #00bbbc }
        .s3 { fill: none }
    </style>
    <g id="Layer">
        <filter id="f0">
            <feFlood flood-color="#ffffff" flood-opacity="1" />
            <feBlend mode="normal" in2="SourceGraphic"/>
            <feComposite in2="SourceAlpha" operator="in" />
        </filter>
        <g id="Layer" filter="url(#f0)">
            <g id="Layer">
                <path id="Layer" class="s0" d="m32.4 119.4h-3.4v-2h-0.1c-0.4 0.8-1 1.4-1.7 1.8-0.7 0.4-1.4 0.6-2.2 0.6-0.9 0-1.7-0.1-2.3-0.4-0.6-0.3-1.1-0.7-1.4-1.2-0.3-0.5-0.6-1.1-0.7-1.8-0.1-0.7-0.2-1.5-0.2-2.4v-8.7h3.5v8c0 1.2 0.2 2 0.5 2.6 0.3 0.6 0.9 0.9 1.7 0.9q1.5 0 2.1-0.9c0.4-0.6 0.6-1.7 0.6-3.1v-7.5h3.5v14.1z"/>
                <path id="Layer" class="s0" d="m35.2 105.3h3.3v1.9c0.5-0.7 1-1.3 1.7-1.7 0.7-0.4 1.4-0.6 2.2-0.6 0.8 0 1.6 0.2 2.2 0.5q1.1 0.6 1.5 1.8c0.4-0.6 0.9-1.2 1.6-1.6 0.7-0.5 1.4-0.7 2.3-0.7 0.7 0 1.3 0.1 1.9 0.3q0.9 0.3 1.5 0.9c0.4 0.4 0.7 0.9 1 1.6 0.2 0.6 0.3 1.4 0.3 2.3v9.4h-3.5v-8c0-0.5 0-0.9 0-1.3 0-0.4-0.1-0.8-0.3-1.1-0.1-0.3-0.4-0.6-0.7-0.7q-0.5-0.3-1.2-0.3-0.8 0-1.2 0.3c-0.3 0.2-0.5 0.5-0.7 0.8-0.2 0.3-0.3 0.7-0.3 1.1-0.1 0.4-0.1 0.9-0.1 1.3v7.9h-3.5v-7.9q0-0.6 0-1.2c0-0.4-0.1-0.8-0.2-1.1-0.1-0.3-0.3-0.6-0.6-0.8-0.3-0.2-0.7-0.3-1.3-0.3-0.2 0-0.4 0-0.7 0.1-0.3 0.1-0.5 0.2-0.8 0.5-0.3 0.2-0.5 0.6-0.7 1-0.2 0.4-0.3 1-0.3 1.7v8.2h-3.5z"/>
                <path id="Layer" fill-rule="evenodd" class="s0" d="m57.4 109.3q0 0.1 0 0.3zm0.6-2c0.4-0.6 0.8-1.1 1.4-1.4 0.6-0.4 1.2-0.6 1.9-0.8 0.7-0.2 1.4-0.2 2.1-0.2 0.6 0 1.3 0 2 0.1q1.1 0.2 1.8 0.6c0.5 0.3 1 0.7 1.3 1.2 0.3 0.5 0.5 1.2 0.5 2v7.3c0 0.6 0 1.2 0.1 1.8 0.1 0.6 0.2 1 0.3 1.3h-3.6c-0.1-0.2-0.1-0.4-0.2-0.7 0-0.2-0.1-0.5-0.1-0.7-0.6 0.6-1.2 1.1-2 1.4-0.8 0.3-1.5 0.4-2.3 0.4-0.6 0-1.2-0.1-1.7-0.3-0.5-0.2-1-0.4-1.4-0.8-0.4-0.3-0.7-0.8-0.9-1.3-0.2-0.5-0.3-1.2-0.3-1.9 0-0.8 0.1-1.5 0.4-2 0.3-0.5 0.6-0.9 1-1.2 0.4-0.3 0.9-0.5 1.4-0.7 0.5-0.2 1.1-0.3 1.6-0.4 0.5-0.1 1.1-0.2 1.6-0.2 0.5-0.1 0.9-0.1 1.3-0.2 0.4-0.1 0.7-0.3 0.9-0.5q0.3-0.3 0.3-0.9c0-0.4-0.1-0.8-0.2-1-0.1-0.2-0.3-0.4-0.5-0.6-0.2-0.1-0.4-0.2-0.7-0.3-0.3 0-0.6-0.1-0.9-0.1-0.7 0-1.2 0.2-1.6 0.5-0.4 0.3-0.6 0.9-0.7 1.6h-3.4c0.1-0.8 0.3-1.5 0.6-2zm7.6 5.2c-0.1 0.1-0.3 0.3-0.6 0.3-0.2 0.1-0.5 0.1-0.7 0.2-0.3 0.1-0.5 0.1-0.8 0.1-0.3 0-0.6 0.1-0.8 0.1-0.3 0.1-0.5 0.1-0.8 0.2-0.2 0.1-0.5 0.2-0.7 0.4-0.2 0.2-0.3 0.4-0.5 0.6-0.1 0.2-0.2 0.5-0.2 0.9 0 0.4 0.1 0.7 0.2 0.9 0.1 0.2 0.3 0.4 0.5 0.5 0.2 0.1 0.4 0.2 0.7 0.3 0.3 0.1 0.5 0.1 0.8 0.1 0.7 0 1.2-0.1 1.6-0.4 0.4-0.3 0.7-0.6 0.8-0.9 0.2-0.4 0.3-0.7 0.3-1.1 0-0.4 0.1-0.7 0.1-0.9z"/>
                <path id="Layer" class="s0" d="m71.8 105.3h3.4v2h0.1c0.4-0.8 1-1.4 1.7-1.8 0.7-0.4 1.4-0.6 2.2-0.6 0.9 0 1.7 0.1 2.3 0.4 0.6 0.3 1.1 0.7 1.4 1.2 0.3 0.5 0.6 1.1 0.7 1.8 0.1 0.7 0.2 1.5 0.2 2.4v8.7h-3.5v-8c0-1.2-0.2-2-0.5-2.6-0.3-0.6-0.9-0.9-1.7-0.9q-1.5 0-2.1 0.9c-0.4 0.6-0.6 1.7-0.6 3.1v7.4h-3.5z"/>
                <path id="Layer" fill-rule="evenodd" class="s0" d="m93.8 99.9h9.6c0.8 0 1.5 0.1 2.1 0.4 0.6 0.3 1.2 0.7 1.6 1.2 0.5 0.5 0.8 1.1 1 1.7 0.2 0.7 0.4 1.3 0.4 2.1 0 1.1-0.2 2.1-0.7 3-0.4 0.8-1.2 1.5-2.1 1.9v0.1c0.5 0.1 0.9 0.4 1.2 0.7 0.3 0.3 0.6 0.7 0.8 1.1 0.2 0.4 0.3 0.9 0.4 1.4 0.1 0.5 0.2 1 0.2 1.5 0 0.3 0 0.7 0 1.1 0 0.4 0 0.8 0.1 1.3 0 0.4 0.1 0.8 0.2 1.2 0.1 0.4 0.2 0.7 0.4 1h-3.9c-0.1-0.3-0.2-0.7-0.3-1-0.1-0.4-0.1-0.8-0.1-1.2 0-0.4-0.1-0.8-0.1-1.3 0-0.4-0.1-0.8-0.1-1.2-0.1-1-0.4-1.8-0.8-2.2-0.4-0.5-1.1-0.7-2.1-0.7h-3.9v7.6h-3.9zm3.9 8.8h4.3c0.9 0 1.5-0.2 2-0.7 0.5-0.4 0.7-1.1 0.7-2.1 0-0.9-0.2-1.6-0.7-2.1-0.5-0.4-1.1-0.6-2-0.6h-4.3z"/>
                <path id="Layer" class="s0" d="m115 103.1h-3.5v-3.2h3.5zm-3.5 2.2h3.5v14.1h-3.5z"/>
                <path id="Layer" fill-rule="evenodd" class="s0" d="m130.1 118.5c0 0.4 0 0.8-0.1 1.3-0.1 0.5-0.2 0.9-0.3 1.4-0.2 0.5-0.4 0.9-0.7 1.3-0.3 0.4-0.7 0.8-1.2 1.1-0.5 0.3-1.1 0.6-1.8 0.8-0.7 0.2-1.6 0.3-2.5 0.3-0.6 0-1.3-0.1-1.9-0.3-0.7-0.2-1.2-0.4-1.8-0.8-0.5-0.4-1-0.8-1.3-1.4q-0.6-0.9-0.6-2.1h3.5c0.2 0.7 0.5 1.2 1 1.5 0.5 0.3 1 0.4 1.7 0.4 1 0 1.7-0.3 2.2-1 0.5-0.7 0.7-1.5 0.7-2.5v-1.9c-0.4 0.7-0.9 1.3-1.6 1.7-0.7 0.4-1.4 0.5-2.2 0.5-1 0-1.8-0.2-2.5-0.6-0.7-0.4-1.3-0.9-1.7-1.5-0.4-0.6-0.8-1.4-1-2.3q-0.3-1.3-0.3-2.7c0-0.9 0.1-1.8 0.4-2.6 0.2-0.8 0.6-1.6 1.1-2.2 0.5-0.6 1-1.2 1.7-1.5q1.1-0.6 2.4-0.6c0.8 0 1.6 0.2 2.2 0.5 0.6 0.3 1.2 0.9 1.6 1.7v-1.7h3.4v13.2zm-6.3-2.5c0.5 0 0.9-0.1 1.3-0.3q0.6-0.3 0.9-0.9 0.3-0.6 0.6-1.2c0.1-0.5 0.2-1 0.2-1.5 0-0.6 0-1.1-0.1-1.6-0.1-0.5-0.3-1-0.5-1.4-0.2-0.4-0.5-0.7-0.9-1-0.4-0.2-0.9-0.4-1.4-0.4-0.5 0-0.9 0.1-1.3 0.3q-0.6 0.3-0.9 0.9c-0.2 0.4-0.4 0.8-0.5 1.3-0.1 0.5-0.2 1-0.2 1.5 0 0.5 0 1 0.1 1.5 0.1 0.5 0.2 1 0.5 1.4 0.2 0.4 0.5 0.7 0.9 1 0.3 0.3 0.7 0.4 1.3 0.4z"/>
                <path id="Layer" class="s0" d="m132.9 99.9h3.5v7.3h0.1c0.4-0.8 1-1.4 1.7-1.8 0.7-0.4 1.4-0.6 2-0.6 0.9 0 1.7 0.1 2.3 0.4 0.6 0.3 1.1 0.7 1.4 1.2 0.3 0.5 0.6 1.1 0.7 1.8 0.1 0.7 0.2 1.5 0.2 2.4v8.7h-3.5v-8c0-1.2-0.2-2-0.5-2.6-0.3-0.6-0.9-0.9-1.7-0.9q-1.5 0-2.1 0.9c-0.4 0.6-0.6 1.7-0.6 3.1v7.4h-3.5z"/>
                <path id="Layer" class="s0" d="m152.1 105.3h2.6v2.6h-2.6v7c0 0.7 0.1 1.1 0.3 1.3q0.3 0.3 1.2 0.3c0.4 0 0.8 0 1.1-0.1v3c-0.3 0.1-0.6 0.1-1 0.1-0.4 0-0.7 0-1.1 0-0.5 0-1.1 0-1.6-0.1-0.5-0.1-0.9-0.2-1.3-0.5-0.4-0.2-0.7-0.6-0.9-1-0.2-0.4-0.3-1-0.3-1.7v-8.3h-2.1v-2.6h2.1v-4.2h3.5v4.2z"/>
                <path id="Layer" class="s0" d="m159.1 114.8c0 0.4 0.1 0.8 0.2 1.1 0.2 0.3 0.4 0.5 0.6 0.7 0.2 0.2 0.5 0.3 0.9 0.4 0.3 0.1 0.7 0.1 1 0.1 0.2 0 0.5 0 0.8-0.1 0.3-0.1 0.5-0.2 0.7-0.3 0.2-0.1 0.4-0.3 0.6-0.5 0.1-0.2 0.2-0.5 0.2-0.9 0-0.3-0.1-0.5-0.3-0.8-0.2-0.2-0.4-0.4-0.8-0.6-0.3-0.2-0.8-0.3-1.3-0.5-0.5-0.1-1.1-0.3-1.7-0.4-0.5-0.1-1-0.3-1.5-0.5-0.5-0.2-0.9-0.4-1.3-0.7-0.4-0.3-0.7-0.6-0.9-1.1-0.2-0.4-0.3-1-0.3-1.6 0-0.9 0.2-1.6 0.5-2.2 0.3-0.6 0.7-1.1 1.3-1.4 0.5-0.3 1.1-0.6 1.8-0.7 0.7-0.1 1.3-0.2 2-0.2 0.7 0 1.4 0.1 2 0.2 0.7 0.1 1.2 0.4 1.8 0.7 0.5 0.3 0.9 0.8 1.3 1.4 0.3 0.6 0.5 1.3 0.6 2.2h-3.4c0-0.7-0.3-1.3-0.8-1.5-0.5-0.3-1-0.4-1.6-0.4q-0.3 0-0.6 0c-0.2 0-0.4 0.1-0.6 0.2-0.2 0.1-0.4 0.2-0.5 0.4-0.1 0.2-0.2 0.4-0.2 0.7 0 0.3 0.1 0.6 0.3 0.8 0.2 0.2 0.5 0.4 0.9 0.5 0.4 0.1 0.8 0.3 1.3 0.4 0.5 0.1 1 0.2 1.5 0.4 0.5 0.1 1 0.3 1.5 0.5 0.5 0.2 0.9 0.4 1.3 0.7 0.4 0.3 0.7 0.7 0.9 1.1 0.2 0.4 0.3 1 0.3 1.7 0 0.9-0.2 1.7-0.5 2.3-0.3 0.6-0.8 1.1-1.3 1.5-0.5 0.4-1.2 0.7-1.9 0.8-0.7 0.2-1.4 0.2-2.1 0.2-0.7 0-1.5-0.1-2.2-0.2-0.7-0.2-1.3-0.4-1.9-0.8-0.6-0.4-1-0.9-1.4-1.5-0.4-0.6-0.6-1.4-0.6-2.3h3.4z"/>
                <path id="Layer" class="s0" d="m188.8 106.4c-0.1-0.5-0.2-0.9-0.4-1.4-0.2-0.4-0.5-0.8-0.9-1.1-0.4-0.3-0.7-0.6-1.2-0.7-0.4-0.2-0.9-0.3-1.4-0.3-0.9 0-1.6 0.2-2.2 0.6q-0.9 0.6-1.5 1.5c-0.4 0.6-0.7 1.3-0.8 2.1-0.2 0.8-0.3 1.6-0.3 2.5q0 1.2 0.3 2.4c0.2 0.8 0.5 1.5 0.8 2.1q0.6 0.9 1.5 1.5c0.6 0.4 1.4 0.6 2.2 0.6 1.2 0 2.1-0.4 2.8-1.2 0.7-0.8 1.1-1.9 1.2-3.2h3.8c-0.1 1.2-0.4 2.3-0.8 3.3-0.4 1-1 1.8-1.6 2.5-0.7 0.7-1.5 1.2-2.4 1.6q-1.3 0.6-3 0.6c-1.4 0-2.6-0.3-3.7-0.8-1.1-0.5-2-1.2-2.7-2.2-0.7-0.9-1.3-2-1.7-3.2-0.4-1.2-0.6-2.6-0.6-4 0-1.4 0.2-2.8 0.6-4 0.4-1.3 1-2.3 1.7-3.3 0.7-1 1.7-1.7 2.7-2.2 1.1-0.5 2.3-0.8 3.7-0.8 1 0 1.9 0.2 2.8 0.5 0.9 0.3 1.6 0.8 2.3 1.4 0.7 0.6 1.3 1.3 1.7 2.2 0.4 0.9 0.7 1.9 0.8 3z"/>
                <path id="Layer" fill-rule="evenodd" class="s0" d="m194.6 112.3c0-1.1 0.2-2.2 0.5-3.1 0.3-0.9 0.8-1.7 1.3-2.3q0.9-0.9 2.1-1.5c0.8-0.4 1.7-0.5 2.7-0.5 1 0 1.9 0.2 2.7 0.5q1.2 0.6 2.1 1.5c0.6 0.6 1 1.4 1.3 2.3 0.3 0.9 0.5 1.9 0.5 3.1 0 1.1-0.2 2.1-0.5 3.1-0.3 0.9-0.8 1.7-1.3 2.3q-0.9 0.9-2.1 1.5c-0.8 0.4-1.7 0.5-2.7 0.5-1 0-1.9-0.2-2.7-0.5q-1.2-0.6-2.1-1.5c-0.6-0.6-1-1.4-1.3-2.3-0.3-0.9-0.5-1.9-0.5-3.1zm3.5 0c0 0.6 0 1.1 0.1 1.7 0.1 0.5 0.3 1 0.5 1.4 0.2 0.4 0.6 0.8 1 1 0.4 0.3 0.9 0.4 1.5 0.4 0.6 0 1.1-0.1 1.5-0.4 0.4-0.3 0.7-0.6 1-1 0.3-0.4 0.4-0.9 0.5-1.4 0.1-0.5 0.1-1.1 0.1-1.7 0-0.6 0-1.1-0.1-1.7-0.1-0.5-0.3-1-0.5-1.4-0.2-0.4-0.6-0.8-1-1-0.4-0.3-0.9-0.4-1.5-0.4-0.6 0-1.1 0.1-1.5 0.4-0.4 0.3-0.7 0.6-1 1-0.2 0.4-0.4 0.9-0.5 1.4 0 0.6-0.1 1.2-0.1 1.7z"/>
                <path id="Layer" class="s0" d="m210.3 105.3h3.3v1.9c0.5-0.7 1-1.3 1.7-1.7 0.7-0.4 1.4-0.6 2.2-0.6 0.8 0 1.6 0.2 2.2 0.5 0.6 0.3 1.2 1 1.5 1.8 0.4-0.6 0.9-1.2 1.6-1.6 0.7-0.5 1.4-0.7 2.3-0.7 0.7 0 1.3 0.1 1.9 0.3q0.9 0.3 1.5 0.9c0.4 0.4 0.7 0.9 1 1.6 0.2 0.6 0.3 1.4 0.3 2.3v9.4h-3.5v-8c0-0.5 0-0.9 0-1.3 0-0.4-0.1-0.8-0.3-1.1-0.1-0.3-0.4-0.6-0.7-0.7q-0.4-0.3-1.2-0.3-0.7 0-1.2 0.3c-0.3 0.2-0.5 0.5-0.7 0.8-0.2 0.3-0.3 0.7-0.3 1.1-0.1 0.4-0.1 0.9-0.1 1.3v7.9h-3.5v-7.9q0-0.6 0-1.2c0-0.4-0.1-0.8-0.2-1.1-0.1-0.3-0.3-0.6-0.6-0.8-0.3-0.2-0.7-0.3-1.3-0.3-0.2 0-0.4 0-0.7 0.1-0.3 0.1-0.5 0.2-0.8 0.5-0.3 0.2-0.5 0.6-0.7 1-0.2 0.4-0.3 1-0.3 1.7v8.2h-3.5v-14.3z"/>
                <path id="Layer" class="s0" d="m232.8 105.3h3.3v1.9c0.5-0.7 1-1.3 1.7-1.7 0.7-0.4 1.4-0.6 2.2-0.6 0.8 0 1.6 0.2 2.2 0.5q1 0.6 1.5 1.8c0.4-0.6 0.9-1.2 1.6-1.6 0.7-0.5 1.4-0.7 2.3-0.7 0.7 0 1.3 0.1 1.9 0.3q0.9 0.3 1.5 0.9c0.4 0.4 0.7 0.9 1 1.6 0.2 0.6 0.3 1.4 0.3 2.3v9.4h-3.5v-8c0-0.5 0-0.9 0-1.3 0-0.4-0.1-0.8-0.3-1.1-0.1-0.3-0.4-0.6-0.7-0.7q-0.4-0.3-1.2-0.3-0.7 0-1.2 0.3c-0.3 0.2-0.5 0.5-0.7 0.8-0.2 0.3-0.3 0.7-0.3 1.1-0.1 0.4-0.1 0.9-0.1 1.3v7.9h-3.5v-7.9q0-0.6 0-1.2c0-0.4-0.1-0.8-0.2-1.1-0.1-0.3-0.3-0.6-0.6-0.8-0.3-0.2-0.7-0.3-1.3-0.3-0.2 0-0.4 0-0.7 0.1-0.3 0.1-0.5 0.2-0.8 0.5-0.3 0.2-0.5 0.6-0.7 1-0.2 0.4-0.3 1-0.3 1.7v8.2h-3.5v-14.3z"/>
                <path id="Layer" class="s0" d="m258.8 103.1h-3.5v-3.2h3.5zm-3.5 2.2h3.5v14.1h-3.5z"/>
                <path id="Layer" class="s0" d="m264.3 114.8c0 0.4 0.1 0.8 0.2 1.1 0.2 0.3 0.4 0.5 0.6 0.7 0.2 0.2 0.5 0.3 0.9 0.4 0.3 0.1 0.7 0.1 1 0.1 0.2 0 0.5 0 0.8-0.1 0.3-0.1 0.5-0.2 0.7-0.3 0.2-0.1 0.4-0.3 0.6-0.5 0.1-0.2 0.2-0.5 0.2-0.9 0-0.3-0.1-0.5-0.3-0.8-0.2-0.2-0.4-0.4-0.8-0.6-0.3-0.2-0.8-0.3-1.3-0.5-0.5-0.1-1.1-0.3-1.7-0.4-0.5-0.1-1-0.3-1.5-0.5-0.5-0.2-0.9-0.4-1.3-0.7-0.4-0.3-0.7-0.6-0.9-1.1-0.2-0.4-0.3-1-0.3-1.6 0-0.9 0.2-1.6 0.5-2.2 0.3-0.6 0.7-1.1 1.3-1.4 0.5-0.3 1.1-0.6 1.8-0.7 0.7-0.1 1.3-0.2 2-0.2 0.7 0 1.4 0.1 2 0.2 0.7 0.1 1.2 0.4 1.8 0.7 0.5 0.3 0.9 0.8 1.3 1.4 0.3 0.6 0.5 1.3 0.6 2.2h-3.4c0-0.7-0.3-1.3-0.8-1.5-0.5-0.3-1-0.4-1.6-0.4q-0.3 0-0.6 0c-0.2 0-0.4 0.1-0.6 0.2-0.2 0.1-0.4 0.2-0.5 0.4-0.1 0.2-0.2 0.4-0.2 0.7 0 0.3 0.1 0.6 0.3 0.8 0.2 0.2 0.5 0.4 0.9 0.5 0.4 0.1 0.8 0.3 1.3 0.4 0.5 0.1 1 0.2 1.5 0.4 0.5 0.1 1 0.3 1.5 0.5 0.5 0.2 0.9 0.4 1.3 0.7 0.4 0.3 0.7 0.7 0.9 1.1 0.2 0.4 0.3 1 0.3 1.7 0 0.9-0.2 1.7-0.5 2.3-0.3 0.6-0.8 1.1-1.3 1.5-0.5 0.4-1.2 0.7-1.9 0.8-0.7 0.2-1.4 0.2-2.1 0.2-0.7 0-1.5-0.1-2.2-0.2-0.7-0.2-1.3-0.4-1.9-0.8-0.6-0.4-1-0.9-1.4-1.5-0.4-0.6-0.6-1.4-0.6-2.3h3.4z"/>
                <path id="Layer" class="s0" d="m277.6 114.8c0 0.4 0.1 0.8 0.2 1.1 0.2 0.3 0.4 0.5 0.6 0.7 0.2 0.2 0.5 0.3 0.9 0.4 0.3 0.1 0.7 0.1 1 0.1 0.2 0 0.5 0 0.8-0.1 0.3-0.1 0.5-0.2 0.7-0.3 0.2-0.1 0.4-0.3 0.6-0.5 0.1-0.2 0.2-0.5 0.2-0.9 0-0.3-0.1-0.5-0.3-0.8-0.2-0.2-0.4-0.4-0.8-0.6-0.3-0.2-0.8-0.3-1.3-0.5-0.5-0.1-1.1-0.3-1.7-0.4-0.5-0.1-1-0.3-1.5-0.5-0.5-0.2-0.9-0.4-1.3-0.7-0.4-0.3-0.7-0.6-0.9-1.1-0.2-0.4-0.3-1-0.3-1.6 0-0.9 0.2-1.6 0.5-2.2 0.3-0.6 0.7-1.1 1.3-1.4 0.5-0.3 1.1-0.6 1.8-0.7 0.7-0.1 1.3-0.2 2-0.2 0.7 0 1.4 0.1 2 0.2 0.7 0.1 1.2 0.4 1.8 0.7 0.5 0.3 0.9 0.8 1.3 1.4 0.4 0.6 0.5 1.3 0.6 2.2h-3.4c0-0.7-0.3-1.3-0.8-1.5-0.5-0.3-1-0.4-1.6-0.4q-0.3 0-0.6 0c-0.2 0-0.4 0.1-0.6 0.2-0.2 0.1-0.4 0.2-0.5 0.4-0.1 0.2-0.2 0.4-0.2 0.7 0 0.3 0.1 0.6 0.3 0.8 0.2 0.2 0.5 0.4 0.9 0.5 0.4 0.1 0.8 0.3 1.3 0.4 0.5 0.1 1 0.2 1.5 0.4 0.5 0.1 1 0.3 1.5 0.5 0.5 0.2 0.9 0.4 1.3 0.7 0.4 0.3 0.7 0.7 0.9 1.1 0.2 0.4 0.3 1 0.3 1.7 0 0.9-0.2 1.7-0.5 2.3-0.3 0.6-0.8 1.1-1.3 1.5-0.5 0.4-1.2 0.7-1.9 0.8-0.7 0.2-1.4 0.2-2.1 0.2-0.7 0-1.5-0.1-2.2-0.2-0.7-0.2-1.3-0.4-1.9-0.8-0.6-0.4-1-0.9-1.4-1.5-0.4-0.6-0.6-1.4-0.6-2.3h3.4z"/>
                <path id="Layer" class="s0" d="m291.8 103.1h-3.5v-3.2h3.5zm-3.5 2.2h3.5v14.1h-3.5z"/>
                <path id="Layer" fill-rule="evenodd" class="s0" d="m294.2 112.3c0-1.1 0.2-2.2 0.5-3.1 0.3-0.9 0.8-1.7 1.3-2.3q0.9-0.9 2.1-1.5c0.8-0.4 1.7-0.5 2.7-0.5 1 0 1.9 0.2 2.7 0.5q1.2 0.6 2.1 1.5c0.6 0.6 1 1.4 1.3 2.3 0.3 0.9 0.5 1.9 0.5 3.1 0 1.1-0.2 2.1-0.5 3.1-0.3 0.9-0.8 1.7-1.3 2.3q-0.9 0.9-2.1 1.5c-0.8 0.4-1.7 0.5-2.7 0.5-1 0-1.9-0.2-2.7-0.5q-1.2-0.6-2.1-1.5c-0.6-0.6-1-1.4-1.3-2.3-0.3-0.9-0.5-1.9-0.5-3.1zm3.5 0c0 0.6 0 1.1 0.1 1.7 0.1 0.5 0.3 1 0.5 1.4 0.2 0.4 0.6 0.8 1 1 0.4 0.3 0.9 0.4 1.5 0.4 0.6 0 1.1-0.1 1.5-0.4 0.4-0.3 0.7-0.6 1-1 0.2-0.4 0.4-0.9 0.5-1.4 0.1-0.5 0.1-1.1 0.1-1.7 0-0.6 0-1.1-0.1-1.7-0.1-0.5-0.3-1-0.5-1.4-0.2-0.4-0.6-0.8-1-1-0.4-0.3-0.9-0.4-1.5-0.4-0.6 0-1.1 0.1-1.5 0.4-0.4 0.3-0.7 0.6-1 1-0.2 0.4-0.4 0.9-0.5 1.4 0 0.6-0.1 1.2-0.1 1.7z"/>
                <path id="Layer" class="s0" d="m309.8 105.3h3.4v2h0.1c0.4-0.8 1-1.4 1.7-1.8 0.7-0.4 1.4-0.6 2.2-0.6 0.9 0 1.7 0.1 2.3 0.4 0.6 0.3 1.1 0.7 1.4 1.2 0.3 0.5 0.6 1.1 0.7 1.8 0.1 0.7 0.2 1.5 0.2 2.4v8.7h-3.5v-8c0-1.2-0.2-2-0.5-2.6-0.3-0.6-0.9-0.9-1.7-0.9q-1.5 0-2.1 0.9c-0.4 0.6-0.6 1.7-0.6 3.1v7.4h-3.5v-14z"/>
            </g>
            <filter id="f1">
                <feFlood flood-color="#ffffff" flood-opacity="1" />
                <feBlend mode="normal" in2="SourceGraphic"/>
                <feComposite in2="SourceAlpha" operator="in" />
            </filter>
            <g id="Layer" filter="url(#f1)">
                <path id="Layer" class="s0" d="m12.3 52.2h4.1v4.2h-4.1z"/>
                <path id="Layer" class="s0" d="m21.9 69.8q0 3.6-1.8 6.3-2.2 3-5.7 3c-2.4 0-4.3-1-5.8-3-1.2-1.8-1.9-3.9-1.9-6.3v-9.9h-4.2v10.4c0 3.6 1.2 6.7 3.6 9.2 2.3 2.4 5.1 3.7 8.3 3.7 3.3 0 6.1-1.3 8.4-3.8 2.3-2.5 3.5-5.5 3.5-9v-10.4h-4.4z"/>
                <path id="Layer" class="s0" d="m82.8 52.2h4.1v4.2h-4.1z"/>
                <path id="Layer" class="s0" d="m82.8 68.7q0 2.1-0.3 2.7-0.6 1.2-2.7 1.2h-2.3-1.3-5.1c0.6-1.4 0.9-2.9 0.9-4.7v-8.1h-4.2v8.6c0 2.7-1.1 4.1-3.2 4.1h-4.1c0.6-0.6 0.9-2.1 0.9-4.6v-8.2h-4.2v8.6c0 2.8-1.1 4.2-3.2 4.2h-3.9v-0.2c0.5-0.7 0.7-2.1 0.7-4.4v-8.2h-4.2v8.3c0 3-1.1 4.4-3.2 4.4h-2.3-1.6-0.9c-1.6 0-2.7-0.2-3.2-0.6q-1.2-0.9-1.2-3.6v-15.7h-4.2v17.4c0 2.1 0.5 3.7 1.5 4.9 1.1 1.3 2.6 2 4.7 2h3.3 1.6 35.2 1.3 3.2c4.2 0 6.3-2.3 6.3-6.8v-10.2h-4.2v8.9z"/>
                <path id="Layer" class="s0" d="m104.7 68.2c0 1.7-0.3 2.9-1.1 3.6-0.6 0.6-1.4 0.8-2.6 0.8l-4.7-17.3h-4.4l4.7 17.3h-5.7v4.3h11.2c4.1 0 6.6-2.3 6.6-5.9v-18.3h-4.1v15.5z"/>
                <path id="Layer" class="s0" d="m93.9 81.5c0-0.7 0.5-1.5 1.3-1.5 0.6 0 0.9 0.3 1.1 0.8l1.4-0.6c-0.5-1.2-1.3-1.7-2.4-1.7-1.6 0-2.9 1.4-2.9 3.1 0 0.2 0.1 0.6 0.3 1.3h-1.5v1.7h6.5v-1.7h-3c-0.6-0.3-0.8-0.8-0.8-1.4z"/>
                <path id="Layer" class="s0" d="m112.7 52.7h4.2v24.3h-4.2z"/>
                <path id="Layer" class="s0" d="m139.8 52.2h4.1v4.2h-4.1z"/>
                <path id="Layer" class="s0" d="m146.9 52.2h4.1v4.2h-4.1z"/>
                <path id="Layer" fill-rule="evenodd" class="s0" d="m153.3 66.6c0 0.1 0 1.6 0 4.2 0 6.9-5.4 12.3-12.4 12.3-7.2 0-12.6-5.4-12.6-12.3v-7h4v6.5c0 5.5 3.3 9 8.5 9 3.8 0 7.2-2.3 8.3-5.7-1 0.8-2.2 1.1-3.6 1.1-4.8 0-7.8-3.1-7.8-8 0-4.9 2.9-8 7.7-8 4.8 0 7.9 2.9 7.9 7.9zm-3.9 0.2c0-3-1.7-5.1-3.9-5.1-2.2 0-3.9 2.1-3.9 4.9 0 2.8 1.5 4.9 3.9 4.9 2.4 0 3.9-1.9 3.9-4.7z"/>
                <path id="Layer" class="s0" d="m191.6 49.4h4.1v4.2h-4.1z"/>
                <path id="Layer" class="s0" d="m184.5 49.4h4.1v4.2h-4.1z"/>
                <path id="Layer" fill-rule="evenodd" class="s0" d="m227.7 74.3v2.6h-29.1q-5.4 0-8.4-2.1c-2 1.4-4.7 2.1-8.3 2.1h-8.7c-0.6 4.1-3.3 6.2-8.2 6.2v-3.3c2.2 0 3.6-0.9 4.2-2.9h-4c-4.5 0-8.2-3.7-8.2-8.7 0-4.9 3.6-8.3 8.4-8.3 4.6 0 7.8 3.5 7.8 8.4v4.5h8.5c1.9 0 3-0.1 3.5-0.4-1.2-0.9-2.2-2.1-2.8-3.5q-0.9-1.8-0.9-3.9c0-1 0.2-1.8 0.5-2.6 1.4-3.6 4.5-5.8 8.3-5.8 4.2 0 8.7 2.9 8.7 8.2 0 1.4-0.3 2.7-0.9 4-0.6 1.4-1.5 2.6-2.7 3.5 0.4 0.2 1.6 0.4 3.5 0.4h24.3c0-2.4-0.7-4.3-2-6-1.6-2-3.8-2.9-6.5-2.9-1 0-2 0.2-3.2 0.7-1.4 0.6-2.5 1.4-3.4 2.4-0.4-0.8-1.1-1.9-2-3.3 1.1-1.1 2.5-2 4-2.7 1.7-0.8 3.3-1.1 5-1.1q4.2 0 7.2 2.1c3.5 2.4 5.3 6.5 5.4 12.4zm-58.7-1.7v-5.1c-0.2-2.2-1.5-3.8-3.7-3.8-2.5 0-4.1 1.7-4.1 4.2 0 2.6 1.7 4.7 4 4.7zm26-8.1q0-1.9-1.2-3.3c-0.9-0.9-2.1-1.4-3.6-1.4-1.5 0-2.7 0.5-3.6 1.4q-1.2 1.4-1.2 3.3c0 2 0.8 3.6 2.5 4.8 0.6 0.5 1.4 1 2.3 1.4 0.9-0.5 1.7-0.9 2.3-1.4 1.6-1.2 2.4-2.8 2.5-4.8z"/>
                <path id="Layer" class="s0" d="m244.5 49h4.1v4.2h-4.1z"/>
                <path id="Layer" class="s0" d="m251.6 49h4.1v4.2h-4.1z"/>
                <path id="Layer" class="s0" d="m272.9 57.3h-4.7c-0.4-0.4-0.6-0.9-0.6-1.7 0-1.4 0.6-2.1 1.7-2.1 0.8 0 1.4 0.4 1.6 1.1l1.8-1.2c-0.6-1.5-1.8-2.3-3.5-2.3-2.4 0-4 1.8-4 4.2q0 1 0.3 1.8h-2v2.5h9.3z"/>
                <path id="Layer" class="s0" d="m277.8 80.9h4.1v4.2h-4.1z"/>
                <path id="Layer" class="s0" d="m284.9 80.9h4.1v4.2h-4.1z"/>
                <path id="Layer" fill-rule="evenodd" class="s0" d="m321.9 72.4c0 1.5-0.1 3-0.4 4.5h-63.1c-3.3 0-5.9-2.3-6.8-5.6-1.3 1.9-2.9 2.8-4.8 2.8-4.8 0-7.8-3.6-7.8-8.8 0-5.6 3-9.1 7.8-9.1h9.3v11.9c0 2.9 1.4 4.5 4.2 4.5h5.4c1.2 0 2-0.4 2.5-1.3 0.3-0.6 0.5-1.6 0.5-2.9v-6.5h4.2v6.3c0 2.3-0.3 3.7-0.9 4.4h10c1.3 0 2.1-0.4 2.6-1.3 0.4-0.6 0.5-1.6 0.5-2.9v-8.6h4.2v8.4c0 2.3-0.3 3.7-0.9 4.4h11.5c-0.7-1.5-1-2.8-1-3.9 0-4.4 2.9-7.3 7.4-7.3 4.4 0 7.4 2.8 7.4 7.3 0 1.1-0.4 2.4-1 3.9h5c0-0.3 0-0.7 0-1 0-6.3-3.9-12-9.3-13.1l0.5-4c8 1.6 12.9 8.6 13 17.9zm-70.2-13h-3.8c-2.9 0-4.7 2.3-4.7 5.8 0 2.9 1.6 5.4 4.1 5.4 2.7 0 4.4-2.5 4.4-5.7zm58 9.3c0-2.2-1.3-3.9-3.5-3.9-2.3 0-3.5 1.6-3.5 3.9 0 2.3 1.5 4 3.5 4 2.1 0 3.5-1.7 3.5-4z"/>
            </g>
        </g>
        <g id="Layer">
            <path id="Layer" class="s1" d="m342.7 82.9c0.2-0.6 0.1-1.2 0.2-1.9 0.5-7 1.7-13.8 3.9-20.4 3.9-12.3 10.3-23.1 19.1-32.5 6.9-7.4 14.8-13.4 23.8-17.9 7.3-3.7 14.9-6.3 22.9-7.8 4-0.8 8-1.2 12-1.4 0.1 0 0.2 0 0.3-0.1q3.7 0 7.5 0c0.7 0.2 1.4 0.1 2.1 0.2 6.9 0.5 13.6 1.7 20.1 3.8 12.5 4 23.5 10.4 33 19.4 10.6 10 18.2 21.9 22.7 35.7 1.7 5.2 2.9 10.5 3.6 15.8 0.7 5 0.8 10 0.6 15.1-0.9 18.7-7.2 35.4-19 50-11.9 14.7-27.1 24.5-45.5 29.3-5.5 1.4-11.1 2.3-16.8 2.6-14.8 0.7-28.8-2-42.1-8.5-8-3.9-15.3-8.9-21.7-15-10.6-10.1-18.2-22.1-22.7-36-1.7-5.3-2.9-10.6-3.5-16.1-0.2-2.1-0.4-4.1-0.5-6.2 0-0.1 0-0.2-0.1-0.2 0.1-2.7 0.1-5.3 0.1-7.9z"/>
            <g id="Layer">
                <g id="Layer">
                    <path id="Layer" fill-rule="evenodd" class="s0" d="m342.7 82.9c0.2-0.6 0.1-1.2 0.2-1.9 0.5-7 1.7-13.8 3.9-20.4 3.9-12.3 10.3-23.1 19.1-32.5 6.9-7.4 14.8-13.4 23.8-17.9 7.3-3.7 14.9-6.3 22.9-7.8 4-0.8 8-1.2 12-1.4 0.1 0 0.2 0 0.3-0.1q3.7 0 7.5 0c0.7 0.2 1.4 0.1 2.1 0.2 6.9 0.5 13.6 1.7 20.1 3.8 12.5 4 23.5 10.4 33 19.4 10.6 10 18.2 21.9 22.7 35.7 1.7 5.2 2.9 10.5 3.6 15.8 0.7 5 0.8 10 0.6 15.1-0.9 18.7-7.2 35.4-19 50-11.9 14.7-27.1 24.5-45.5 29.3-5.5 1.4-11.1 2.3-16.8 2.6-14.8 0.7-28.8-2-42.1-8.5-8-3.9-15.3-8.9-21.7-15-10.6-10.1-18.2-22.1-22.7-36-1.7-5.3-2.9-10.6-3.5-16.1-0.2-2.1-0.4-4.1-0.5-6.2 0-0.1 0-0.2-0.1-0.2 0.1-2.7 0.1-5.3 0.1-7.9zm171.1 4c0-46.7-37.6-84.8-84.4-85.2-47.4-0.4-85.5 37.7-85.8 84.5-0.3 47.4 37.6 85 83.6 85.8 48.1 0.8 86.7-38 86.6-85.1z"/>
                    <path id="Layer" fill-rule="evenodd" class="s0" d="m369 86.9c0-33 26.8-59.8 59.9-59.6 32.9 0.1 60 27.1 59.4 60.8-0.6 32.4-27.3 59.1-60.8 58.5-32.3-0.7-58.5-27.1-58.5-59.7zm118.4 0c0.1-32-25.8-58.6-58.4-58.8-32.7-0.2-58.9 26.1-59.1 58.5-0.1 32.8 26.2 58.5 57.6 59.1 33.3 0.5 60-26.3 59.9-58.8z"/>
                    <path id="Layer" fill-rule="evenodd" class="s0" d="m450.8 18.2q0 0 0.1 0c1.8 0.6 3.5 1.5 5.3 2.1 0.2 0.1 0.3 0.2 0.5-0.1 0.2-0.3 0.3 0 0.5 0.1 1.3 0.7 2.7 1.5 4 2.2 0.9 0.5 1.8 0.7 2.8 0.8 0.1-0.2-0.1-0.3-0.1-0.4-0.4-0.6-0.8-1.1-1.3-1.7-0.6-0.7-1.3-1.1-2.2-1.1-0.2 0-0.5 0-0.5-0.2 0-0.2 0.2-0.3 0.4-0.4 0.9-0.4 1.8-0.7 2.8-0.8 0.9-0.1 1.5 0.5 2.1 1.1 0.4 0.5 0.7 1 1.1 1.6 1.1 1.9 2.4 3.6 4 5 0 0 0.1 0.1 0.1 0.2-0.8 0.3-1.5 0.6-2.2 1-0.3 0.1-0.4 0-0.6-0.1-0.8-0.5-1.7-1.1-2.5-1.7-0.8-0.6-1.7-0.9-2.7-0.8-1.5 0.1-2.8-0.3-4-1.1-0.3-0.2-0.7-0.4-1-0.6-0.2-0.1-0.4-0.4-0.7-0.1 0 0-0.2-0.1-0.4-0.1-1.5-0.6-3.1-1.2-4.6-1.8-2.6-1-5.3-1.5-7.9-2.3-1.6-0.5-3.2-0.5-4.8-0.8-2.3-0.4-4.7-0.6-7-0.7-2.1-0.1-4.1-0.1-6.2 0-0.3 0-0.4 0.1-0.5 0.3-0.2 0.9-0.5 1.8-1 2.6q-0.6 1-1.5 1.8c-0.8 0.7-1.6 0.9-2.6 0.6-1.3-0.3-2.5-0.5-3.7-1.1-0.3-0.1-0.8-0.2-0.7-0.6 0.1-0.4 0.5-0.1 0.8-0.1 0.3 0 0.6 0 0.9 0.1 1.1 0.3 2 0 2.9-0.5 1.3-0.8 2.3-1.8 3.3-3.1-0.8 0-1.4 0-2.1 0q-1.1 0-1.8-0.6c-0.4-0.3-0.6-0.7-0.5-1.1 0.1-1.7 0.5-3.3 1.4-4.7 0.9-1.6 2.1-1.7 3.2 0 0.6 0.9 1 2 1.3 3 0.1 0.4 0.2 0.5 0.6 0.5 2.3 0.2 4.6 0 6.9 0.2 2.8 0.2 5.6 0.6 8.4 0.9 1.3 0.2 2.5 0.5 3.7 0.8 0.3 0.1 0.4 0 0.4-0.2 0.1-0.5 0.4-0.8 0.8-1.1 1.5-0.9 2.9-1.8 4.7-2 1.2-0.2 1.8 0.3 1.9 1.5 0.1 1.1-0.2 2.1-1.1 2.8-0.4 0.3-0.5 0.5-0.7 0.7zm0.1 0q-0.1 0-0.1 0c0.1 0.1 0.1 0 0.1 0zm-2.2-2.9c-0.4 0-0.9 0.1-1.4 0.3-0.4 0.2-0.5 0.5-0.3 0.8 0.5 0.9 1.8 1.4 2.8 1.1 0.1 0 0.3-0.1 0.4-0.2 0.3-0.7-0.4-2-1.5-2zm-26.7-0.4c0.3-0.1 0.6 0 0.9-0.1 0.2-0.1 0.3-0.2 0.2-0.4-0.3-0.5-0.5-1.1-1.1-1.4-0.2-0.1-0.4-0.2-0.6-0.1-0.4 0.2-0.9 0.8-0.9 1.1 0.1 0.5 0.5 0.7 0.9 0.9q0.3-0.1 0.6 0z"/>
                    <path id="Layer" fill-rule="evenodd" class="s0" d="m482.8 43.4c-1-1.6-2.5-2.9-3.8-4.3-0.3-0.4-0.6-0.8-1-1.1-0.3-0.3-0.2-0.8 0-1.3q0.4-0.7 0.9-1.5c-0.5-0.1-0.9 0.1-1.3 0.3-1 0.4-1.1 0.3-1.7-0.5-0.6-0.8-1.1-1.5-1.7-2.3-0.2-0.3-0.2-0.5 0.1-0.6 0.9-0.5 1.7-1 2.6-1.4 0.7-0.3 1.4-0.1 2.1 0.1 0.7 0.1 1.3 0.2 2 0.4 0.3 0.1 0.4 0 0.5-0.2 0.1-0.4 0.3-0.5 0.6-0.6 0.7-0.2 1.3-0.4 2.1-0.6-0.6 0.8-1.1 1.6-1.6 2.3-0.8 1.2-1.6 2.4-2.4 3.7-0.2 0.4-0.2 0.7 0.1 1 0.7 0.6 1.1 1.5 1.8 2.1 1.5 1.3 2.5 3 3.7 4.5 0.2 0.2 0.3 0.3 0.5 0.1 0 0 0.1 0 0.1-0.1 1.2-1.2 2.7-1.2 4.3-0.9-0.2 0.3-0.5 0.5-0.8 0.7-0.4 0.3-0.8 0.5-1.2 0.8q-0.9 0.5-0.9 1.5c0 0.3 0.1 0.5 0.2 0.8 0.7 1.2 1.4 2.4 2.2 3.6 1.3 2.2 2.4 4.4 3.6 6.7 0.8 1.5 1.2 3 1.9 4.5 0.2 0.4 0.3 0.5 0.7 0.4 0.3-0.1 0.7-0.1 0.9-0.3 0.7-0.4 1.4-0.3 2.1 0.1 0.3 0.2 0.7 0.3 1 0.5q-0.3 0.3-0.6 0.3c-0.5 0.2-1.1 0.3-1.6 0.4-1.1 0.2-1.5 0.9-1.2 2 0.4 1.5 0.7 3.1 1.3 4.6 0.4 1.1 0.6 2.1 0.8 3.2 0 0.2 0.1 0.2 0.3 0.3 1.2 0.1 2.3 0.6 3.4 1.2 0.9 0.5 1.8 0.4 2.7 0.6 0.9 0.2 0.9 0.2 0.5 1-0.7 1.6-1.5 3.1-2.7 4.5-0.2 0.3-0.4 0.5-0.7 0.7-1.2 1.2-2.5 1.3-4.1 0.6-0.4-0.2-0.7-0.5-0.8-1-0.4-2.9-0.8-5.8-1.4-8.7-0.1-0.8-0.5-1.6-0.7-2.4-0.5-1.6-1-3.3-1.5-4.9-0.1-0.3 0-0.6 0.1-0.9 0.1-0.4 0.4-0.7 0.7-1.1-0.4-0.1-0.8-0.2-1.2-0.2-0.3 0-0.4-0.2-0.6-0.4-1.6-4.1-3.7-8-6-11.8-0.6-1-1.3-2-2-3-0.3-0.4-0.2-0.9-0.1-1.3 0.2-0.4 0.4-0.7 0.4-1 0.1 0.1 0.1 0 0 0-1.2 0.4-2 0-2.6-1.1zm-5.3-11.4q-0.2 0 0 0c0.3 0.9 1 1.7 1.7 2.3 0.2 0.2 0.3 0.1 0.4 0 0.4-0.5 0.8-1.1 1.1-1.7 0.1-0.1 0.3-0.3 0.1-0.4-0.1-0.1-0.4 0-0.5 0-0.6 0.3-1.2 0.3-1.9 0.1q-0.4-0.1-0.9-0.3zm24.8 43.3c-0.1-0.4-0.4-0.7-0.8-1-0.3-0.3-0.6-0.7-1-0.5-0.4 0.1-0.5 0.6-0.6 1-0.2 0.7 0.6 1.6 1.3 1.6 0.4 0 1.1-0.6 1.1-1.1zm-2.3 3.8c0 0.2 0.1 0.6 0.1 0.9 0 0.2 0.1 0.2 0.3 0.1 0.6-0.4 1.2-0.9 1.5-1.6 0.2-0.4 0.1-0.7-0.3-0.8-0.9-0.4-1.5 0.1-1.6 1.4z"/>
                    <path id="Layer" class="s0" d="m369.3 39.8c0.8 0.6 1.7 1.1 2.3 1.9 0.4 0.4 0.5 0.4 0.9 0 1.5-1.5 2.8-3.2 4.3-4.8 1.3-1.5 2.8-2.7 4.2-4 0.3-0.3 0.2-0.4-0.1-0.6-0.8-0.5-1.6-0.8-2.6-0.9-0.2 0-0.4-0.1-0.4-0.4-0.1-0.7-0.3-1.4-0.4-2.1-0.1-0.2 0-0.3 0.2-0.3 1.9 0.3 3.6 1 4.6 2.7 0.4 0.7 0.8 1.5 1.2 2.2 0.1 0.2 0.1 0.4-0.1 0.5-0.8 0.7-1.5 1.3-2.2 2-2.2 2-4.2 4.3-6.1 6.6-0.4 0.5-0.8 1.1-1.7 0.9 0.7 0.7 0.1 1-0.2 1.5-0.4 0.6-0.8 1.1-1.2 1.6-0.1 0.2-0.2 0.3-0.4 0.2-0.4-0.1-0.5 0.1-0.4 0.4 0.1 0.3 0 0.5-0.2 0.7-0.5 0.7-1 1.4-1.4 2.2-0.3 0.6-0.7 0.9-1.5 0.9 0.5 0.9 0.1 1.6-0.4 2.4-2.2 4.1-4.1 8.4-5.4 12.9-0.2 0.8-0.5 1.6-0.6 2.4-0.1 0.4-0.2 0.6-0.7 0.5-1.9-0.3-3.9-0.7-5.8-1-1.6-0.3-3.2-0.5-4.8-0.8-0.4-0.1-0.6-0.2-0.8-0.5-0.4-0.6-0.8-1.2-1.2-1.9 1.6 0.3 3.1 0.5 4.7 0.8 1.9 0.3 3.8 0.6 5.8 0.9 0.3 0 0.8-0.5 1-1 0.6-1.8 1.2-3.5 1.9-5.3 0.7-1.9 1.6-3.7 2.5-5.6 0.7-1.5 1.5-2.8 2.3-4.2 0.2-0.3 0.1-0.5-0.1-0.7-0.1 0-0.1-0.1-0.1-0.1-1-0.5-1.2-1.5-1.5-2.4-0.1-0.3-0.2-0.7-0.3-1.1 0.3 0 0.5 0.2 0.7 0.4 0.5 0.5 0.9 1 1.4 1.5 0.5 0.5 0.9 0.5 1.3-0.1 0.2-0.3 0.4-0.5 0.6-0.8 0.1-0.2 0.2-0.3 0.4-0.5 0.2-0.3 0.5-0.6 0.6-0.9 0-0.4-0.5-0.4-0.7-0.6-0.2-0.2-0.3-0.4-0.4-0.6-0.2-0.8-0.3-1.6-0.4-2.5 0.4 0.4 0.7 0.8 1 1.2 0.2 0.3 0.5 0.6 0.7 0.9 0.5 0.6 0.6 0.6 1.1 0 0.2-0.3 0.5-0.7 0.7-1 0.2-0.2 0.1-0.4-0.1-0.5-0.1 0-0.1-0.1-0.2-0.1-0.4-0.2-0.8-0.1-1.1-0.6-0.6-0.5-0.9-1.7-0.9-2.3z"/>
                    <path id="Layer" fill-rule="evenodd" class="s0" d="m385.8 27.7c0.2-0.1 0.3 0 0.5 0.1 0.7 0.3 1.1 0.2 1.5-0.5 0.5-0.8 0.7-1.7 0.9-2.6 0.1-0.2-0.1-0.3-0.2-0.3-1-0.4-2.1-0.6-3.2-0.7-0.4 0-0.3 0.2-0.3 0.4 0.1 0.3 0 0.4-0.4 0.5-0.9 0-1.7 0-2.6 0.2-0.7 0.1-1.2-0.3-1.5-0.8-0.8-1.2-0.7-1.4 0.5-2.2 0.3-0.2 0.7-0.3 0.3-0.8-0.1-0.2 0.2-0.2 0.3-0.2 1.2 0.1 2.5 0.2 3.6 0.5 1.2 0.3 2.3 0.6 3.5 1.3-0.4-1.6-0.8-3-2.3-3.7-0.2-0.1-0.2-0.2-0.2-0.3 0-1 0-2.1 0-3.2 0.7 0.9 1.6 0.7 2.4 0.7 1.3 0 1.2-0.2 1.2 1.1 0 0.3 0 0.7 0 1 0 0.4 0 0.7-0.5 0.8-0.2 0-0.1 0.2-0.1 0.3 0.2 0.4 0.3 0.9 0.5 1.3 0.3 0.7 0.3 1.4 0.3 2.2 0 0.4 0.1 0.6 0.5 0.8 1.5 0.7 2.2 2 2.8 3.4 0.1 0.2 0 0.2-0.1 0.3-1.8 1.2-3.5 2.3-5.3 3.5-0.3 0.2-0.5 0-0.7-0.1-0.6-1.1-1.1-2-1.4-3zm3.6-1.1c0.5-0.3 1.1-0.6 1.6-1-0.4-0.3-0.8-0.5-1.3-0.7-0.1 0.5-0.2 1-0.3 1.7-0.1-0.1-0.1 0-0.1 0 0.1 0 0.1 0 0.1 0z"/>
                    <path id="Layer" fill-rule="evenodd" class="s0" d="m416.1 18.4c0.4 1.6-0.4 2.7-1.6 3.7-1.6 1.3-3.2 2.5-5.3 2.8-2.5 0.4-3.9-0.6-4.3-3.1-0.2-1.5-0.2-3 0.3-4.5 0.1-0.2 0.1-0.7 0.5-0.6 0.3 0.1 0.1 0.5 0.1 0.7 0 0.6-0.1 1.2-0.1 1.8 0 2 1.2 3.2 3.2 2.9 2.3-0.4 4.4-1.3 6-3.1 0.2-0.3 0.3-0.5 0.1-0.8-0.3-0.5-0.5-0.9-0.8-1.3-0.1-0.2-0.2-0.2-0.4 0-0.7 1.2-1.9 1.6-3.2 1.3-0.9-0.2-1.4-0.8-1.4-1.7 0-1.3 0.2-2.6 0.8-3.8 0.7-1.4 1.8-1.6 3-0.6 1.4 1.3 2.3 2.9 3 4.7 0.2 0.5 0.1 1 0.1 1.6zm-4.5-2.8c0.3-0.1 0.6-0.1 1-0.3 0.3-0.1 0.4-0.3 0.1-0.5q-0.4-0.3-0.9-0.6c-0.7-0.4-0.8-0.4-1.1 0.4 0 0.1-0.1 0.2-0.1 0.3 0 0.1 0 0.2 0.1 0.3 0.2 0.2 0.5 0.3 0.9 0.4z"/>
                    <path id="Layer" class="s0" d="m460.6 149.7c0.3-2 2-2.9 3.9-2.1 0.1-1 0.6-1.8 1.6-2.3 0.9-0.5 1.9-0.4 2.7 0.3 0.4 0.3 0.7 0.7 0.9 1.1 0.7 1.3 1.4 2.5 2.2 3.8 0.1 0.2 0.1 0.3-0.1 0.5-0.5 0.2-0.9 0.5-1.4 0.8-0.3 0.2-0.4 0.2-0.6-0.2-0.6-1.1-1.2-2.1-1.8-3.1-0.2-0.3-0.4-0.6-0.6-0.8-0.3-0.3-0.7-0.5-1.1-0.3-0.4 0.2-0.6 0.6-0.6 1q0 0.5 0.3 0.9c0.6 1.1 1.3 2.2 1.9 3.3 0.2 0.3 0.1 0.5-0.2 0.7-0.4 0.2-0.9 0.5-1.3 0.7-0.3 0.2-0.4 0.1-0.5-0.1q-0.9-1.6-1.8-3.3c-0.1-0.2-0.2-0.4-0.3-0.5-0.4-0.6-1-0.7-1.4-0.4-0.5 0.3-0.7 0.9-0.4 1.5 0.3 0.6 0.6 1.2 1 1.8 0.4 0.7 0.7 1.3 1.1 2 0.1 0.2 0.2 0.4-0.1 0.5-0.5 0.2-0.9 0.5-1.4 0.8-0.3 0.2-0.4 0.1-0.5-0.1-1.1-2-2.2-4-3.5-6-0.1-0.2-0.1-0.3 0.1-0.4 0.4-0.2 0.7-0.4 1.1-0.6 0.3-0.3 0.5-0.2 0.7 0.2-0.1 0 0 0.1 0.1 0.3z"/>
                    <path id="Layer" class="s0" d="m368.5 125.3c2 0.2 3.1 2 2.4 3.7 0.6 0.1 1.1 0.2 1.6 0.5 1.4 1 1.7 2.7 0.5 3.9-0.5 0.6-1.1 0.9-1.8 1.4-0.9 0.6-1.8 1.2-2.6 1.8-0.2 0.2-0.3 0.2-0.5-0.1-0.3-0.4-0.5-0.8-0.8-1.2-0.3-0.3-0.3-0.5 0.1-0.8 1-0.6 1.9-1.3 2.9-1.9 0.3-0.2 0.5-0.4 0.7-0.6 0.4-0.4 0.4-0.9 0.1-1.3-0.3-0.4-0.8-0.6-1.3-0.4-0.2 0.1-0.5 0.2-0.7 0.4-1.1 0.7-2.1 1.4-3.1 2.1-0.2 0.2-0.4 0.1-0.5-0.1-0.3-0.4-0.5-0.8-0.8-1.2-0.2-0.3-0.2-0.4 0.1-0.6 1.1-0.7 2.1-1.4 3.1-2.1 0.2-0.1 0.4-0.3 0.6-0.5 0.3-0.4 0.4-0.7 0.2-1.2-0.2-0.4-0.7-0.6-1.2-0.5-0.3 0.1-0.6 0.3-0.9 0.4-1 0.7-2 1.3-3 2.1-0.4 0.3-0.5 0.2-0.7-0.2-0.2-0.4-0.5-0.8-0.8-1.2-0.1-0.2-0.2-0.3 0.1-0.5 1.9-1.3 3.8-2.6 5.7-4 0.2-0.1 0.3-0.1 0.4 0.1 0.2 0.3 0.4 0.7 0.7 1 0.3 0.4 0.2 0.6-0.1 0.8-0.2 0-0.3 0-0.4 0.2z"/>
                    <path id="Layer" class="s0" d="m471.9 142.7c0.1-2.2 1.4-3.1 3.5-2.7 0-0.9 0.2-1.6 0.8-2.3 0.9-0.9 2-1 3.1-0.4 0.6 0.4 1.1 1 1.6 1.6 0.7 0.9 1.4 1.7 2.2 2.6 0.2 0.2 0.3 0.4 0 0.6-0.4 0.3-0.8 0.6-1.2 1-0.2 0.2-0.4 0.2-0.5-0.1-0.7-0.9-1.5-1.8-2.2-2.7-0.2-0.3-0.5-0.6-0.8-0.8-0.5-0.3-0.9-0.3-1.3 0-0.4 0.3-0.5 0.9-0.3 1.3 0.1 0.2 0.3 0.4 0.4 0.6 0.8 1 1.7 2 2.5 3 0.2 0.2 0.2 0.3 0 0.5-0.4 0.3-0.9 0.7-1.3 1.1-0.2 0.2-0.3 0.1-0.5-0.1-0.8-1-1.6-2-2.4-2.9-0.2-0.2-0.4-0.5-0.7-0.6-0.3-0.2-0.7-0.3-1.1 0-0.4 0.3-0.6 0.6-0.5 1.1 0 0.3 0.2 0.6 0.4 0.9 0.8 1 1.6 1.9 2.4 2.9 0.3 0.3 0.3 0.5-0.1 0.8-0.3 0.2-0.6 0.5-0.8 0.7-0.5 0.4-0.5 0.4-1-0.1-1.4-1.7-2.7-3.4-4.2-5-0.2-0.2-0.2-0.3 0-0.5 0.3-0.2 0.6-0.5 0.9-0.7 0.3-0.3 0.6-0.4 0.8 0 0 0 0.1 0 0.3 0.2z"/>
                    <path id="Layer" class="s0" d="m357 114.8c-0.3 0.1-0.3-0.1-0.3-0.3-0.1-0.6-0.2-1.1-0.4-1.7-0.1-0.3 0-0.3 0.3-0.4 1.2-0.2 2.3-0.5 3.5-0.8 0.3-0.1 0.4-0.2 0.3-0.5-0.2-1-0.5-2-0.7-3-0.1-0.3-0.1-0.4-0.4-0.3-1.1 0.3-2.3 0.5-3.4 0.8-0.4 0.1-0.6 0-0.6-0.4-0.1-0.5-0.2-1-0.3-1.4-0.1-0.3 0-0.4 0.3-0.5q2.7-0.6 5.4-1.2c1.3-0.3 2.6-0.6 4-0.9 0.3-0.1 0.4 0 0.5 0.3 0.1 0.5 0.2 1.1 0.4 1.6 0.1 0.3 0 0.4-0.3 0.5-1.1 0.2-2.1 0.5-3.1 0.7-0.3 0.1-0.4 0.1-0.3 0.4 0.2 1 0.5 2 0.7 3 0.1 0.3 0.2 0.3 0.5 0.3 1.1-0.3 2.1-0.5 3.2-0.7 0.2-0.1 0.3 0 0.4 0.2 0.1 0.6 0.3 1.2 0.4 1.7 0 0.2 0 0.3-0.2 0.4-3.5 0.7-6.7 1.4-9.9 2.2q0-0.1 0 0z"/>
                    <path id="Layer" fill-rule="evenodd" class="s0" d="m397.9 152.8c0.7 1 0.4 2 0.2 3-0.1 0.8-0.3 1.5-0.4 2.4-0.7-0.3-1.3-0.6-2-0.9-0.2-0.1-0.2-0.3-0.1-0.4 0.1-0.9 0.3-1.7 0.5-2.6 0.2-1-0.3-1.7-1.3-2-0.3-0.1-0.3 0.2-0.3 0.3-0.5 0.9-0.9 1.9-1.3 2.8-0.2 0.4-0.3 0.6-0.7 0.3q-0.3-0.1-0.6-0.3c-1-0.5-1-0.5-0.6-1.5 1.2-2.6 2.5-5.2 3.7-7.8 0.2-0.4 0.3-0.4 0.7-0.3 1.4 0.5 2.8 1.1 4 2 1.1 0.9 1.6 1.9 1.2 3.1-0.4 1.3-1.2 2-2.7 2.1-0.1-0.2-0.2-0.2-0.3-0.2zm-1.1-1.6c0.9 0 1.4-0.3 1.6-0.9 0.2-0.6 0.1-1.1-0.4-1.5-0.4-0.3-0.8-0.5-1.3-0.7-0.2-0.1-0.3 0-0.4 0.2-0.3 0.7-0.6 1.3-1 2-0.1 0.1-0.1 0.3 0 0.3 0.7 0.2 1.2 0.6 1.5 0.6z"/>
                    <path id="Layer" fill-rule="evenodd" class="s0" d="m408.9 160.8q-1.8 0.9-3.3-0.3c-1.1-0.9-1.3-2.1-1.1-3.4 0.3-1.6 1.1-3 2.9-3.4 1.4-0.3 2.6 0.2 3.3 1.5 0.4-0.7 0.4-0.7 1.3-0.5 1 0.3 1 0.3 0.7 1.3-0.5 1.9-1 3.7-1.6 5.6-0.4 1.3-1 2.4-2.5 2.8-1.8 0.4-3.4-0.2-4.9-1.2-0.1-0.1-0.2-0.2-0.1-0.4 0.2-0.4 0.5-0.8 0.7-1.2 0.1-0.2 0.2-0.1 0.3 0 0.5 0.4 1.1 0.8 1.7 0.9 1.5 0.4 2.4-0.2 2.6-1.7zm-2-2.8c0 0.9 0.4 1.5 1.2 1.6 0.7 0.1 1.3-0.3 1.5-1.2 0.1-0.3 0.2-0.7 0.3-1.1 0.2-0.7-0.1-1.3-0.7-1.6-0.6-0.3-1.3-0.1-1.7 0.5q-0.6 0.7-0.6 1.8z"/>
                    <path id="Layer" class="s0" d="m416.9 156.5c0.8-0.7 1.6-0.9 2.6-0.7 1.2 0.3 1.9 1.3 1.9 2.6 0 1-0.2 2-0.3 3-0.1 0.7-0.2 1.3-0.3 2 0 0.3-0.1 0.4-0.5 0.3-0.5-0.1-1-0.2-1.5-0.2-0.4 0-0.4-0.1-0.4-0.5 0.2-1.3 0.4-2.5 0.5-3.8 0-0.2 0-0.3 0-0.5-0.1-0.7-0.4-1.1-1.1-1.2-0.7 0-1.2 0.4-1.3 1.1-0.2 1.4-0.4 2.7-0.6 4.1 0 0.3-0.1 0.4-0.4 0.3-0.5-0.1-1.1-0.2-1.6-0.2-0.2 0-0.3-0.1-0.3-0.4 0.5-3.4 1-6.7 1.4-10.1 0-0.3 0.1-0.5 0.5-0.4 0.5 0.1 1 0.2 1.5 0.2 0.3 0 0.4 0.1 0.3 0.4-0.2 1.2-0.3 2.3-0.5 3.5 0.1 0.2 0.1 0.3 0.1 0.5z"/>
                    <path id="Layer" class="s0" d="m352.2 72.5c2.5-1 4.8-1.7 7.3-0.4 0.3 0.1 0.6 0.3 0.9 0.4 1.1 0.5 1.8 1.4 2.1 2.5 0.6 2 0.9 4.1 0.2 6.1-0.7 1.9-2.2 2.6-4.1 2.1-1.2-0.3-2.4-0.9-3.4-1.6-0.3-0.2-0.6-0.4-0.9-0.8-0.1-0.1-0.3-0.3-0.1-0.5 0.2-0.2 0.4 0 0.6 0.1 0.2 0.1 0.4 0.3 0.5 0.4 0.5 0.4 1.1 0.6 1.8 0.8 1.3 0.2 2.3-0.3 2.8-1.5 0.6-1.2 0.6-2.6 0.5-3.9-0.1-0.7-0.2-1.4-0.4-2.1-0.4-1-0.8-1.2-1.8-1-1 0.2-2 0.5-2.9 0.9-0.6 0.2-1 0.2-1.4-0.2-0.5-0.4-1-0.8-1.7-1.3z"/>
                    <path id="Layer" class="s0" d="m450.2 158.7c0.2 0.5 0.4 1 0.7 1.5 0.1 0.2 0.1 0.3-0.1 0.5-1.7 1-3.5 1.5-5.4 1-2-0.5-3-2-3.4-3.9-0.8-3.4 1.1-6.1 4.7-6.7 0.6-0.1 1.2-0.2 1.8-0.1 0.3 0 0.4 0.1 0.4 0.4 0 0.4 0 0.9 0 1.3 0 0.3-0.1 0.3-0.4 0.3-0.8-0.1-1.6 0-2.3 0.4-1.7 0.7-2.3 2.4-1.6 4.3 0.6 1.7 2 2.4 3.8 2 0.5-0.4 1.1-0.6 1.8-1z"/>
                    <path id="Layer" class="s0" d="m360.6 122c-1.1-0.3-1.7-1-2-2-0.3-1-0.1-1.8 0.7-2.6 0.4-0.4 0.8-0.6 1.3-0.8 1.3-0.5 2.6-1.1 3.8-1.6 0.3-0.1 0.4-0.1 0.5 0.2q0.3 0.8 0.6 1.5c0.1 0.3 0.1 0.4-0.2 0.5-1.1 0.4-2.2 0.9-3.3 1.4-0.2 0.1-0.4 0.2-0.7 0.3-0.7 0.4-0.9 1-0.6 1.6 0.3 0.6 1 0.8 1.7 0.5q1.8-0.7 3.6-1.5c0.4-0.2 0.6-0.2 0.7 0.3 0.2 0.5 0.4 1 0.6 1.4 0.1 0.2 0.1 0.3-0.2 0.4-2.2 0.9-4.3 1.8-6.4 2.8-0.2 0.1-0.3 0-0.3-0.1-0.1-0.2-0.2-0.4-0.3-0.7-0.1-0.3-0.4-0.6-0.4-0.9 0.1-0.4 0.6-0.4 0.9-0.7z"/>
                    <path id="Layer" class="s0" d="m496.4 107.1c-0.7-0.9-0.9-1.8-0.5-2.8 0.4-1.3 1.6-2 3.1-1.7 1.6 0.3 3.1 0.7 4.7 1 0.3 0.1 0.3 0.2 0.2 0.4-0.1 0.6-0.3 1.1-0.4 1.7 0 0.3-0.2 0.3-0.4 0.2-1.2-0.3-2.4-0.5-3.7-0.8-0.2 0-0.3-0.1-0.5-0.1-0.8-0.1-1.3 0.2-1.4 0.9-0.1 0.7 0.3 1.3 1 1.4 1.1 0.3 2.1 0.5 3.2 0.7 1.2 0.2 1.2 0.2 0.9 1.4-0.3 1.1-0.3 1.1-1.4 0.9-1.9-0.4-3.9-0.9-5.8-1.2-0.4-0.1-0.5-0.2-0.3-0.6 0.1-0.2 0.1-0.4 0.1-0.6 0.2-0.8 0.2-0.8 1.2-0.8z"/>
                    <path id="Layer" class="s0" d="m382.5 141.4c0.8-0.1 1.4-0.1 2.1 0.3 1.4 0.7 1.9 2.1 1.3 3.5-0.2 0.4-0.4 0.7-0.6 1-0.9 1.1-1.7 2.2-2.6 3.3-0.2 0.2-0.3 0.2-0.5 0.1-0.4-0.4-0.9-0.7-1.3-1-0.3-0.2-0.3-0.3-0.1-0.6 0.8-1 1.5-1.9 2.3-2.9 0.1-0.1 0.2-0.2 0.3-0.4 0.5-0.7 0.4-1.3-0.2-1.7-0.6-0.4-1.3-0.3-1.8 0.3-0.6 0.7-1.2 1.5-1.8 2.3-0.3 0.3-0.5 0.7-0.8 1-0.1 0.2-0.3 0.2-0.5 0.1-0.4-0.4-0.9-0.7-1.4-1.1-0.3-0.2-0.2-0.3 0-0.5 1-1.3 2-2.6 3.1-3.9 0.4-0.5 0.8-1 1.1-1.5 0.2-0.3 0.3-0.3 0.6-0.1 0.3 0.3 0.7 0.6 1 0.8 0.3 0.2 0.3 0.3 0.1 0.6-0.1 0-0.1 0.1-0.3 0.4z"/>
                    <path id="Layer" fill-rule="evenodd" class="s0" d="m458.8 155.4c0 2.1-1.9 3.9-4.2 3.9-2.4 0-3.7-2.1-3.8-4.2 0-2.1 1.9-3.8 4.2-3.8 2.1-0.1 3.8 1.7 3.8 4.1zm-5.7-0.7c0.1 0.8 0.4 1.8 1.2 2.4 0.8 0.6 1.9 0.2 2-0.8 0.2-1-0.2-1.9-0.8-2.7-0.4-0.5-1-0.7-1.6-0.5-0.5 0.3-0.8 0.8-0.8 1.6z"/>
                    <path id="Layer" fill-rule="evenodd" class="s0" d="m500.7 115.2c0 2.3-1.7 4.1-3.8 4.1-2.3 0-4.2-1.7-4.2-3.9 0-2.4 1.7-4.2 3.8-4.2 2.4 0.1 4.2 1.8 4.2 4zm-4.5-1.5c-0.9 0-1.4 0.3-1.6 0.8-0.2 0.6 0 1.2 0.5 1.6 0.6 0.5 1.4 0.8 2.2 0.9 0.7 0.1 1.2-0.3 1.5-0.8 0.2-0.5 0.1-1.1-0.4-1.5-0.7-0.7-1.5-1-2.2-1z"/>
                    <path id="Layer" fill-rule="evenodd" class="s0" d="m373.9 141.4c-1.1 0-1.7-0.3-2.3-0.9-0.8-0.8-1-1.9-0.4-2.8 0.5-1 1.7-1.5 2.8-1.2 1 0.2 1.8 0.8 2.5 1.5 0.1 0.1 0.2 0.3 0.4 0.2q0.3-0.2 0.3-0.6c0-0.3-0.2-0.5-0.3-0.8q-0.8-0.9-1.8-1.2c-0.3-0.1-0.3-0.2-0.1-0.4 0.1-0.1 0.1-0.2 0.2-0.4 0.5-0.8 0.5-0.8 1.3-0.4q1.2 0.6 2.1 1.8c1 1.3 1 2.6-0.1 3.8-0.6 0.7-1.4 1.4-2.1 2.1-0.3 0.3-0.7 0.7-1 1.1-0.4 0.5-0.4 0.5-0.9 0-0.2-0.2-0.3-0.4-0.5-0.5-0.5-0.5-0.8-0.8-0.1-1.3zm0.4-1.2c0.4 0 1.4-0.6 1.3-0.9-0.1-0.4-0.5-0.5-0.7-0.7q-0.3-0.1-0.6-0.3c-0.3-0.1-0.6 0-0.8 0.1-0.3 0.2-0.5 0.6-0.4 0.9 0.2 0.6 0.7 0.9 1.2 0.9z"/>
                    <path id="Layer" class="s0" d="m483.1 131.4c0-1.2 1.2-2.9 2.3-3.4 0.2-0.1 0.3-0.1 0.4 0.1 0 0 0 0.1 0.1 0.1 0.2 0.3 0.6 0.6 0.7 1 0 0.4-0.6 0.4-0.8 0.7-0.2 0.2-0.5 0.5-0.6 0.8-0.1 0.2-0.1 0.5 0.1 0.7 0.2 0.2 0.4 0.2 0.6 0.1q0.6-0.3 1.2-0.6c1.1-0.6 2.1-0.5 2.9 0.2 0.7 0.7 0.9 1.5 0.5 2.4-0.4 1.3-1.3 2.2-2.5 2.9-0.2 0.1-0.4 0.1-0.5-0.1-0.2-0.4-0.7-0.7-0.7-1 0-0.4 0.6-0.4 0.9-0.7 0.3-0.3 0.7-0.6 0.9-0.9 0.1-0.2 0.2-0.5 0-0.8-0.2-0.2-0.5-0.3-0.8-0.1-0.2 0.1-0.5 0.3-0.7 0.4-0.4 0.2-0.8 0.4-1.2 0.5-1.5 0.3-2.8-0.7-2.8-2.3z"/>
                    <path id="Layer" class="s0" d="m490.5 123.7c-0.5 0.4-1 0.7-1.3 1.2-0.2 0.3-0.3 0.6 0 0.9 0.3 0.3 0.6 0.1 0.8 0 0.4-0.3 0.8-0.6 1.2-0.8 0.9-0.6 1.8-0.5 2.6 0.1 0.8 0.6 1.1 1.5 0.8 2.6q-0.6 1.8-2.1 3-0.3 0.3-0.6 0c-0.3-0.3-0.8-0.6-0.8-1-0.1-0.4 0.6-0.5 0.8-0.8 0.3-0.3 0.6-0.6 0.8-1.1 0.1-0.2 0.1-0.5-0.1-0.7-0.2-0.2-0.5-0.2-0.7 0-0.6 0.3-1 0.8-1.6 1-1.4 0.6-2.8 0.1-3.1-1.3-0.2-0.6-0.1-1.2 0.1-1.7 0.3-0.9 0.9-1.6 1.7-2.2q0.3-0.3 0.6 0c0.3 0.1 0.6 0.4 0.9 0.8z"/>
                    <path id="Layer" class="s0" d="m429.3 162.1c0.7 0.3 1.5 0.5 2.3 0.4 0.3 0 0.7-0.1 0.7-0.5 0.1-0.4-0.2-0.6-0.6-0.7-0.5-0.2-1-0.3-1.5-0.5-0.8-0.4-1.3-0.9-1.3-1.9 0-1 0.4-1.7 1.3-2.1 1.1-0.6 2.3-0.6 3.5-0.2 0.2 0.1 0.3 0.1 0.2 0.3 0 0 0 0 0 0.1-0.1 0.4 0 0.9-0.3 1.2-0.3 0.3-0.7-0.1-1.1-0.1-0.3 0-0.7-0.1-1 0-0.3 0.1-0.4 0.2-0.5 0.5 0 0.3 0.1 0.4 0.4 0.5 0.4 0.2 0.9 0.3 1.3 0.5 1.5 0.6 2.1 1.9 1.5 3.2-0.3 0.7-1 1.1-1.7 1.3-1.1 0.3-2.2 0.3-3.3-0.1-0.3-0.1-0.5-0.2-0.3-0.5 0.2-0.5 0.3-0.9 0.4-1.4z"/>
                    <path id="Layer" class="s0" d="m426.2 154.5c0 0.5 0 1-0.1 1.5-0.1 0.4 0.1 0.6 0.5 0.5 0.2 0 0.3 0 0.5 0 0.7 0 0.7 0 0.7 0.7 0 1 0 1-1.1 1-0.7 0-0.7 0-0.7 0.7 0 0.7-0.1 1.4-0.1 2.1 0 0.9 0.3 1.2 1.2 1.2 0.3 0 0.4 0.1 0.4 0.4q0 0.3 0 0.6c0 0.9 0 0.9-0.9 0.9q-0.5 0-0.9 0c-1.4-0.2-2-0.9-2.1-2.2-0.1-1.1 0-2.3 0.1-3.4 0-0.3 0-0.5-0.4-0.4-0.5 0.1-0.8-0.2-0.6-0.7q0-0.1 0-0.3c0-0.7 0-0.7 0.7-0.7q0.3 0 0.3-0.3c0-0.1 0-0.1 0-0.2 0.1-1 0.1-1 1-1.2 0.6 0 1-0.1 1.5-0.2z"/>
                    <path id="Layer" class="s0" d="m399.2 24c-0.7-1.1-1.3-2.1-2-3.1-1-1.6-2.1-3.2-3.1-4.9-0.1-0.2-0.3-0.4-0.2-0.6 0-1.1 0.1-2.1 0.3-3.2 0.2 0.1 0.2 0.2 0.3 0.4 1.2 2.1 2.5 4.2 3.7 6.4 0.9 1.5 1.3 3.2 1 5z"/>
                    <path id="Layer" class="s0" d="m402.3 151.7c0.4 0.1 0.8 0.3 1.2 0.4 1 0.4 1 0.4 0.6 1.3q-1 2.9-2.1 5.7c-0.1 0.3-0.2 0.4-0.6 0.3-0.5-0.2-1-0.4-1.5-0.5-0.3-0.1-0.4-0.2-0.2-0.5 0.8-2.1 1.6-4.3 2.4-6.4 0-0.1 0-0.3 0.2-0.3z"/>
                    <path id="Layer" class="s0" d="m485 139.8c-0.1-0.1-0.2-0.2-0.2-0.2-1.7-1.6-3.3-3.2-5-4.7-0.2-0.2-0.2-0.3 0-0.5 0.4-0.4 0.8-0.8 1.1-1.2 0.2-0.2 0.3-0.2 0.6 0 1.5 1.5 3.1 2.9 4.6 4.4 0.6 0.6 0.6 0.6 0 1.2-0.3 0.3-0.5 0.6-0.8 0.9-0.2 0-0.2 0-0.3 0.1z"/>
                    <path id="Layer" class="s0" d="m491.2 118.8c0.1 0 0.2 0.1 0.3 0.1 2 1.1 3.9 2.1 5.9 3.1 0.3 0.2 0.4 0.3 0.2 0.7-0.3 0.4-0.5 0.9-0.7 1.4-0.1 0.2-0.2 0.3-0.5 0.2-2-1.1-4.1-2.2-6.1-3.3-0.2-0.1-0.3-0.2-0.1-0.5 0.3-0.5 0.5-1 0.8-1.5 0-0.1 0-0.2 0.2-0.2z"/>
                    <path id="Layer" class="s0" d="m490.4 39.5c0-0.4-0.2-0.6-0.3-0.8-0.2-0.4-0.1-0.7 0.3-1 0.9-0.7 3-0.5 3.8 0.4 0.2 0.3 0.4 0.6 0.2 1-0.3 0.4-0.7 0.4-1.1 0.4-0.2 0-0.1-0.2-0.1-0.3-0.1-0.8-0.3-1.1-1.1-1.4-0.4-0.1-0.5 0-0.5 0.4 0 0.4 0.2 0.8 0.4 1.1 0.4 0.7 0.9 1.4 1.4 2-0.6 0.4-1.2 0.3-1.6-0.1-0.8-0.8-1.8-1.2-2.9-1.5-0.2-0.1-0.4-0.1-0.5-0.3 0.6-0.3 1.3-0.1 2 0.1z"/>
                    <path id="Layer" class="s0" d="m489.3 64.9c0.1-0.5 0.1-1 0.2-1.4 0.1-0.3 0-0.4-0.3-0.6-1-0.5-1-0.5-0.8-1.6 0.2-1 0.2-1 1.2-0.7 0.3 0.1 0.7 0.1 1 0.4 0.2 0.3-0.1 0.6-0.1 1-0.2 1-0.2 1 0.8 1.4 0.4 0.2 0.6 0.4 0.5 0.9-0.1 0.4-0.1 0.9-0.2 1.3 0 0.2-0.1 0.4-0.3 0.3-0.5-0.2-1-0.2-1.5-0.5-0.4-0.2-0.6-0.3-0.5-0.5z"/>
                    <path id="Layer" class="s0" d="m407.6 8.1c0.5 0.1 0.9 0.2 1.3 0.4 0.4 0.1 0.6 0.1 0.8-0.3 0.6-0.9 0.6-0.9 1.7-0.6 0.4 0.1 0.9 0 1 0.3 0.1 0.3-0.2 0.7-0.4 1-0.5 1.1-0.3 0.9-1.4 0.7 0 0 0 0-0.1 0-0.4-0.1-0.8-0.3-1.1-0.3-0.3 0.1-0.4 0.6-0.6 0.9-0.2 0.2-0.3 0.3-0.6 0.2q-0.8-0.2-1.5-0.3c-0.1 0-0.3-0.1-0.2-0.3 0.3-0.6 0.5-1.1 0.8-1.7q0.3 0 0.3 0z"/>
                    <path id="Layer" class="s0" d="m448.1 10.9c-0.1-0.1-0.2-0.1-0.3-0.2-0.4-0.4-0.7-0.7-1.1-1.1-0.2-0.2-0.1-0.2 0-0.4 1.3-1 1.4-1 2.6 0.2 0.4 0.4 0.7 0.5 1.2 0.2 0.7-0.5 1.2-0.3 1.7 0.3 0.8 0.9 0.9 0.8-0.1 1.5-0.8 0.5-0.8 0.5-1.5-0.1-0.3-0.2-0.6-0.5-0.8-0.7-0.2-0.3-0.4-0.3-0.7-0.1-0.4 0.1-0.7 0.3-1 0.4z"/>
                    <path id="Layer" class="s0" d="m484.8 28.3c-0.5 0-0.8 0.1-1.2 0.1-1 0-0.8 0.2-1.1-0.8v-0.1c-0.1-0.3-0.1-0.7-0.4-1-0.2-0.2-0.6 0-1 0-0.3 0-0.5-0.1-0.5-0.4-0.1-0.4-0.3-0.9-0.4-1.3-0.1-0.3 0-0.4 0.3-0.4h0.1c0.5 0 1-0.3 1.4-0.1 0.4 0.2 0.3 0.8 0.4 1.3 0.1 0.4 0.4 0.5 0.8 0.5 1 0 1 0 1.2 0.9 0.1 0.4 0.3 0.8 0.4 1.3z"/>
                    <path id="Layer" class="s0" d="m390.7 34.6c-0.3 0-0.6 0.3-0.9 0.4-0.3 0.1-0.4 0.1-0.6-0.2-0.4-0.9-0.5-1.8 0-2.6 0.2-0.4 0.5-0.7 1-0.5 0.5 0.1 0.3 0.6 0.4 1-0.4-0.1-0.6-0.1-0.9 0.1-0.2 0.2-0.4 0.4-0.4 0.7-0.1 0.1-0.2 0.3 0 0.5 0.2 0.1 0.3 0 0.5 0 0.6-0.3 1.3-0.7 1.8-1.2 0.2-0.1 0.3-0.3 0.5-0.4 0.3 0.6 0.3 1-0.2 1.5-0.6 0.6-0.8 1.5-1.1 2.5-0.3-0.8-0.1-1.3-0.1-1.8z"/>
                    <path id="Layer" class="s0" d="m373.3 30c0-0.8 0-1.5 0-2.3q0-0.3 0.3-0.3c0.6-0.1 1.2-0.3 1.8-0.5 0.2-0.1 0.3 0 0.3 0.2q0 0.9 0 1.8c0 0.2 0 0.3-0.2 0.3-0.7 0.3-1.5 0.5-2.2 0.8z"/>
                    <path id="Layer" class="s0" d="m350 75.4c0.2 0 0.2 0.1 0.3 0.2 0.4 0.4 0.6 0.9 0.9 1.3 0 0.1 0.1 0.2 0 0.2-0.3 0.5-0.8 1-1.2 1.4-0.1 0.1-0.2-0.1-0.3-0.1-0.4-0.3-0.8-0.7-1.1-1.1-0.1-0.2-0.2-0.4 0-0.6 0.4-0.5 0.8-0.9 1.3-1.3 0 0.1 0 0.1 0.1 0z"/>
                    <path id="Layer" class="s0" d="m488.7 120.1c-0.7 0-1.2-0.5-1.2-1.1 0-0.7 0.6-1.3 1.2-1.4 0.7 0 1.2 0.5 1.2 1.2 0 0.6-0.6 1.2-1.2 1.3z"/>
                    <path id="Layer" class="s0" d="m477.6 132.4c0-0.7 0.6-1.3 1.3-1.3 0.7 0 1.2 0.5 1.2 1.1 0 0.7-0.6 1.3-1.3 1.3-0.7 0.1-1.2-0.4-1.2-1.1z"/>
                    <path id="Layer" class="s0" d="m405.3 150.1c0 0.7-0.5 1.2-1.2 1.2-0.7 0-1.4-0.6-1.4-1.2 0-0.7 0.5-1.2 1.2-1.2 0.8 0 1.4 0.5 1.4 1.2z"/>
                    <path id="Layer" class="s1" d="m485.4 44.5c0.1 0 0.1 0.1 0 0 0.1 0 0 0 0 0z"/>
                    <path id="Layer" class="s0" d="m405.5 99.5c1.3 1.4 2.5 2.9 3.7 4.3 4.3 4.9 6.7 10.6 8 16.9 0 0.1 0.1 0.2 0.1 0.3 0.2 1.2 0.4 2.4 0.5 3.6 0.1 0.8 0 1.7 0 2.5-0.1 1.8-0.2 3.7 0.2 5.5 0.2 0.8 0.5 1.6 1.1 2.2 0.3 0.3 0.6 0.7 0.7 1.1 0.7 1.5 0.3 2.8-1 3.8-0.8 0.5-1.7 1.1-2.5 1.6-0.3 0.2-0.6 0.2-1 0.2-1.3-0.3-2.2-1-2.9-2-1.6-2.4-3.7-4.3-5.8-6.3-1.7-1.5-3.6-2.6-5.4-4-1.7-1.4-3.4-2.8-5-4.3-3.3-3.1-6.4-6.5-9-10.3-1.8-2.7-3.4-5.5-4.2-8.7-0.4-1.5-0.5-3.1-0.7-4.6-0.3-2.5-0.6-5-0.7-7.6-0.1-2.4-0.1-4.9-0.1-7.3 0.1-3.9 0.9-7.7 2.5-11.2 0.2-0.4 0.4-0.7 0.6-1.1 0.2-0.3 0.4-0.6 0.9-0.6 0.4 0 0.7 0.4 0.9 0.7 0.3 0.6 0.3 1.3 0.1 1.9-0.5 2.1-0.2 4.2 0.1 6.3 0.5 3.7 1.2 7.3 2 10.9 0.5 2.1 1.4 3.9 2.5 5.7 2.6 4.1 5.7 7.7 9.7 10.5q0.3 0.1 0.6 0.3h0.1v-0.1c-0.8-1.2-1.6-2.4-2.5-3.6-1.7-2.4-2.9-4.9-3.6-7.8-0.6-2.5-1.3-5-1.6-7.6-0.1-0.7-0.1-1.3 0.2-1.9 0.2-0.6 0.5-1.1 1.2-1.1 0.6-0.1 1.1 0.3 1.5 0.7 0.9 1.1 1.4 2.4 2.1 3.6 0.8 1.3 1.5 2.7 2.6 3.8 0.4 0.5 0.9 0.8 1.4 1.2 1 0.8 1.9 1.6 2.7 2.5z"/>
                    <path id="Layer" fill-rule="evenodd" class="s0" d="m477.9 89.6c-1.4-0.3-2.3-1.3-3-2.5-0.4-0.6-1-1-1.6-1.4q-1.8-1.1-3.9-1.5c-2.7-0.6-5.2-1.7-7.6-3.2-2.9-1.8-5.7-3.7-8.2-6.2-2.1-2.1-3.8-4.7-5.4-7.2-1.4-2.3-2.9-4.5-3.8-7.1-0.7-2.1-2-3.7-3.4-5.3-0.9-1-1.9-2-2.8-3.1-0.4-0.6-0.9-1.3-0.4-2 0.5-0.7 1.2-0.7 2-0.6 1.1 0.1 2 0.7 2.9 1.2 2.5 1.4 4.9 3 7.3 4.6 1.5 1 2.6 2.4 3.7 3.8 1 1.2 1.9 2.5 2.8 3.7 0.1 0.1 0.1 0.3 0.3 0.3 0.1-0.2 0-0.3 0-0.5-0.7-2.7-1.9-5.2-3.4-7.5-1.4-2.3-3-4.4-4.8-6.4-1.4-1.6-3.2-2.7-5-3.7-3.4-1.9-6.8-3.8-10.4-5.4-1.3-0.6-2.7-0.9-4.2-1.1-0.6-0.1-1.2-0.4-1.6-0.8-0.5-0.6-0.3-1.2 0.4-1.5 0.9-0.3 1.9-0.3 2.9-0.4 3.5-0.3 6.9 0.3 10.3 1.3 4.8 1.4 9.4 3.3 14 5.4 2.7 1.3 5.3 2.7 7.4 4.9 1.5 1.5 2.9 3.1 4.1 4.9 4 5.7 7.2 11.8 9.3 18.4 1.1 3.3 2.3 6.4 4 9.4 0.5 0.9 1 1.7 1.7 2.5 0.9 1 1.3 2.3 1.1 3.6 0 0.3-0.1 0.6-0.4 0.8-0.8 0.6-1.6 1.3-2.3 1.9-0.5 0.4-1.2 0.7-2 0.7zm-20.9-26.4q0 0.1 0 0c0 0.1 0.1 0.1 0 0z"/>
                    <path id="Layer" class="s1" d="m457 63.2c0 0 0.1 0.1 0 0 0.1 0.1 0 0.1 0 0q0 0.1 0 0z"/>
                    <path id="Layer" class="s1" d="m433.5 93.3h-0.1c0 0 0 0 0.1 0-0.1-0.1-0.1 0 0 0z"/>
                    <path id="Layer" class="s1" d="m433.8 72c0 0-0.1 0.1-0.1 0-0.1 0 0 0 0.1 0q-0.2 0 0 0z"/>
                    <g id="Layer">
                        <g id="Layer">
                            <path id="Layer" class="s2" d="m466.3 92.2c-8.4-0.8-11.7-6.8-14.7-13.4-2.2-4.9-7.6-12.1-13.8-11.8-5.5 0.2-9.3-2.2-13.1-5.5-6.5-5.6-13.4-9.7-22.1-4 2.8 3.8 0.4 8.3-5 8.8-1.5 0.2-3.1-1-3.6 1.7-0.3 1.9-0.9 3.3 1.6 4.2 1.1 0.5 1.9 2.2 2.5 3.4 3.7 7.9 11.9 13.4 12.4 23.1 0.1 1.2 1.5 2.7 2.7 3.3 2.6 1.2 3.4 3.5 4.7 5.7 1.9 3.2 4.2 6.2 7.7 11.2-0.8-6.8 2.6-5.6 5.1-5.6 2.5 0.1 5.2 0 7.5 0.8 2 0.7 3 0.6 4-1.1 2.1-3.8 5.9-4.9 9.7-5 5.4-0.2 10.2-2.3 15.2-3.9 4.4-1.4 4.3-5.6 4.6-8.9 0.2-3.2-3.3-2.9-5.4-3z"/>
                        </g>
                    </g>
                    <g id="Layer">
                        <g id="Layer">
                            <path id="Layer" class="s3" d="m442.9 94.1l-15.9 8.1"/>
                            <path id="Layer" class="s1" d="m426.9 101.7l15.8-8.1 0.5 0.9-15.9 8.1z"/>
                        </g>
                        <g id="Layer">
                            <path id="Layer" class="s3" d="m420.6 93.8l15.6 8.5"/>
                            <path id="Layer" class="s1" d="m420.4 94.3l0.4-0.9 15.7 8.6-0.5 0.8z"/>
                        </g>
                    </g>
                    <g id="Layer">
                        <path id="Layer" fill-rule="evenodd" class="s1" d="m436.2 76.5q0.5-0.1 0.9 0c0.2 0 0.3 0.1 0.2 0.3-0.3 0.6-0.7 1.1-1.3 1.5 0.5 0.1 1 0.1 1.4 0.3 0.3 0.1 0.6 0.3 0.6 0.5 0 0.3-0.4 0.3-0.7 0.4-0.1 0-0.2 0.1-0.4 0.1 0.5 0.3 0.9 0.5 1.2 0.8 0.1 0.1 0.3 0.3 0.2 0.5-0.1 0.2-0.3 0.2-0.5 0.2-0.6 0.1-1.3 0.1-2 0q0.7 0.6 1.2 1.2c0.4 0.5 0.7 1.1 0.5 1.8-0.1 0.5-0.2 0.5-0.5 0.2-0.6-0.6-1.1-1.1-1.9-1.6 0.2 0.6 0.4 1 0.4 1.5 0 0.6-0.1 0.6-0.6 0.4-0.8-0.4-1.5-0.9-2.1-1.7-0.1 0.4 0 0.8 0 1.1q0 0.3 0 0.6c0 0.8 0 0.8-0.7 1 0.2 0.3 0.8 0 0.7 0.6 0 0.4 0 0.7 0 1.1 0 0.4-0.5 0.2-0.8 0.5 0.6 0.1 0.9 0.3 0.8 0.9-0.1 0.5-0.6 0.2-0.8 0.5 0.4 0.1 0.9 0.2 0.8 0.8-0.1 0.5-0.5 0.3-0.8 0.6 0.6 0.1 0.9 0.3 0.7 0.9-0.1 0.4-0.5 0.2-0.7 0.5 0.5 0.1 0.9 0.3 0.7 1-0.1 0.4-0.6 0.2-0.8 0.4 0.2 0.1 0.3 0.1 0.5 0.2 0.1 0 0.2 0.1 0.2 0.1 0 0.5 0.3 0.3 0.6 0.4 0.3 0 0.5 0.1 0.2 0.4 0 0.1-0.1 0.1-0.1 0.2v0.1c0.1 0 0.3 0 0.4 0 0.2 0 0.5 0 0.6 0.2 0.1 0.2-0.2 0.3-0.3 0.4-0.2 0.2-0.2 0.4 0.1 0.5 0.4 0.1 0.2 0.3 0 0.5-0.5 0.4-1.2 0.5-1.8 0.5-0.8 0-1.6 0.1-2.5-0.1-0.3-0.1-0.6-0.2-0.9-0.4-0.2-0.2-0.3-0.3 0.1-0.4 0.2-0.1 0.4-0.2 0.1-0.4-0.1-0.1-0.4-0.3-0.3-0.4 0.1-0.2 0.4-0.2 0.7-0.2 0.1 0 0.2 0 0.3 0.1v-0.1c-0.3-0.6-0.3-0.6 0.4-0.6q0.3 0 0.3-0.3c0-0.5 0-0.5 0.6-0.7-0.2-0.2-0.6-0.1-0.6-0.5 0-0.5 0.4-0.4 0.6-0.6-0.2-0.1-0.6-0.1-0.6-0.5 0-0.4 0.3-0.4 0.6-0.5-0.1-0.1-0.2-0.1-0.3-0.2 0.1-0.1 0.2-0.1 0.5-0.2-0.7 0-0.7-0.4-0.7-0.8 0-0.5 0.3-0.4 0.6-0.6-0.2-0.1-0.6-0.1-0.6-0.5 0-0.4-0.1-0.8 0.6-0.9-0.3-0.2-0.6-0.1-0.6-0.6 0-0.4 0.4-0.4 0.6-0.5-0.2-0.2-0.6-0.1-0.6-0.5 0-0.4 0.3-0.4 0.6-0.5-0.2-0.2-0.5-0.1-0.5-0.4 0-0.3 0.4-0.2 0.5-0.4-0.7 0-0.6-0.5-0.6-0.9q0-0.5 0-1.2c-0.6 0.9-1.4 1.4-2.2 1.8-0.5 0.3-0.6 0.2-0.6-0.4 0-0.5 0.2-1 0.4-1.5-0.4 0.2-0.7 0.4-0.9 0.7-0.4 0.3-0.7 0.6-1 1-0.2 0.3-0.3 0.2-0.4-0.1-0.2-0.5-0.1-0.9 0.1-1.4 0.3-0.7 0.9-1.2 1.6-1.8-0.2 0-0.4 0-0.5 0.1-0.6 0.1-1.2 0-1.7-0.1-0.3 0-0.3-0.2-0.2-0.4 0.2-0.4 0.6-0.6 0.9-0.8 0.1-0.1 0.3-0.1 0.5-0.2q0 0 0 0c1.3 0 2.6-0.1 4 0.1-0.3 0.1-0.4 0.4-0.6 0.5-1.3 0.6-2.4 1.5-3.4 2.4-0.1 0.1-0.3 0.2-0.3 0.5 0.7-0.6 1.4-1.2 2.1-1.7 0.7-0.5 1.5-1 2.4-1.1-1 0.7-1.8 1.7-2.4 2.7 0.2 0 0.3-0.2 0.3-0.3 0.6-0.7 1.1-1.5 1.9-2 0.6-0.4 0.9-0.4 1.5 0 0.8 0.5 1.3 1.3 1.9 2 0.1 0.1 0.1 0.3 0.4 0.4-0.7-1.1-1.5-2-2.4-2.8 1.8 0.5 3.1 1.7 4.5 2.7-1.1-1.1-2.4-2.1-3.9-2.8 0.1 0 0.2-0.1 0.3-0.1-0.1-0.1-0.2-0.1-0.3-0.3 1.5 0.1 2.9 0.5 4.4 0.6-1.4-0.6-3.1-1-4.9-1.1 1.4-0.5 2.8-0.7 4.2-1.1-1.5 0.1-2.9 0.5-4.3 0.8 1-0.9 2.1-1.7 3.2-2.6-0.3 0-0.4 0.1-0.5 0.2-0.9 0.7-1.7 1.3-2.6 2-0.1 0.1-0.2 0.2-0.3 0.2-0.1-0.1-0.1-0.3-0.1-0.4 0.4-1 0.7-1.9 1.1-2.9 0.1-0.2 0.2-0.3 0.2-0.5-0.7 1-1 2.1-1.5 3.2-0.2-0.6-0.4-1.2-0.7-1.7-0.5-1.3-0.5-1.3-0.9-1.5 0.6 1.1 1 2.2 1.4 3.3 0.1 0.2 0.1 0.4-0.1 0.6-1-0.7-1.9-1.6-3-2.2q0.5 0.2 1 0.4c0.2 0.1 0.3 0.1 0.6 0.3-0.4-0.6-0.4-1.2-0.4-1.8 0-0.3 0-0.7 0.2-0.8 0.3-0.1 0.6 0.1 0.9 0.3 0.5 0.3 0.8 0.8 1.1 1.4q0.3-0.4 0.6-0.9c0.3-0.4 0.7-0.6 1.2-0.8 0.3-0.1 0.4 0 0.5 0.3 0.2 0.3 0.1 1-0.1 1.8 0.8-0.3 1.5-0.7 2.4-0.8zm-10.5 3.2c-0.3-0.2-0.3-0.3-0.1-0.5 0.4-0.4 1-0.4 1.5-0.5 0.1 0 0.2 0 0.4 0-0.6-0.4-1-0.8-1.3-1.3-0.2-0.5-0.2-0.6 0.4-0.6 0.5 0 1 0.1 1.5 0.3 1 0.9 2.1 1.6 3.1 2.5-1.4-0.3-2.9-0.7-4.4-0.8 1.4 0.4 2.9 0.6 4.2 1.1-0.5 0-1-0.1-1.6-0.1-0.5 0-1.1 0-1.6 0-0.5 0-0.9 0-1.4 0.1q-0.3-0.1-0.7-0.2zm2.3-2.7q0.1 0 0.1 0.1 0.1 0 0.1 0-0.1 0-0.2-0.1zm-1.7 3q0.1 0 0.3 0-0.1 0-0.2-0.1 0 0.1-0.1 0.1z"/>
                        <path id="Layer" class="s2" d="m432.1 79.7c1.8 0.1 3.5 0.4 5.2 0.9-1.5-0.2-2.9-0.6-4.4-0.6 0 0.2 0.2 0.1 0.3 0.3-0.1 0-0.2 0-0.3 0.1 1.5 0.7 2.8 1.7 3.9 2.8-1.4-1-2.7-2.2-4.5-2.7 0.9 0.8 1.7 1.7 2.4 2.8-0.3-0.1-0.4-0.2-0.4-0.4-0.6-0.7-1.1-1.5-1.9-2-0.6-0.4-0.9-0.4-1.5 0-0.8 0.6-1.3 1.3-1.9 2-0.1 0.1-0.1 0.3-0.3 0.3q0.9-1.7 2.4-2.7c-0.9 0.1-1.7 0.6-2.4 1.1-0.7 0.5-1.4 1.1-2.1 1.7 0-0.3 0.1-0.4 0.3-0.5 1.1-0.9 2.1-1.8 3.4-2.4 0.2-0.1 0.3-0.4 0.6-0.5-1.4-0.2-2.8-0.1-4.3-0.1 0.5-0.2 1-0.1 1.5-0.2 0.5 0 1.1 0 1.6 0 0.5 0 1 0 1.6 0.1-1.4-0.5-2.8-0.7-4.2-1.1 1.5 0.1 2.9 0.5 4.4 0.8-1-0.9-2.1-1.7-3.2-2.6 1.1 0.7 2.2 1.5 3.2 2.3 0.2-0.2 0.1-0.4 0.1-0.6-0.4-1.1-0.8-2.2-1.4-3.3 0.3 0.2 0.4 0.2 0.9 1.5 0.2 0.5 0.4 1.1 0.7 1.7 0.5-1.1 0.8-2.3 1.5-3.2 0.1 0.2-0.1 0.3-0.2 0.5-0.4 0.9-0.8 1.9-1.1 2.9-0.1 0.2-0.1 0.3 0.1 0.4 0.1 0.1 0.2-0.1 0.3-0.2 0.9-0.7 1.7-1.3 2.6-2 0.1-0.1 0.2-0.2 0.5-0.2-1.1 0.9-2.2 1.6-3.2 2.6 1.4-0.3 2.9-0.6 4.3-0.8-1.7 0.7-3.1 0.9-4.5 1.3z"/>
                    </g>
                </g>
            </g>
        </g>
    </g>
</svg>
